<?xml version="1.0" encoding="UTF-8"?>
<svg id="Layer_11" data-name="Layer 11" xmlns="http://www.w3.org/2000/svg" viewBox="0 0 1496.89 1060.11">
  <defs>
    <style>
      .cls-1 {
        fill: #499c43;
      }

      .cls-1, .cls-2, .cls-3, .cls-4, .cls-5, .cls-6, .cls-7, .cls-8, .cls-9, .cls-10, .cls-11, .cls-12, .cls-13, .cls-14 {
        stroke-width: 0px;
      }

      .cls-2 {
        fill: #c7945a;
      }

      .cls-3 {
        fill: #5bad55;
      }

      .cls-4 {
        fill: #408c3b;
      }

      .cls-5 {
        fill: #eb91d1;
      }

      .cls-6 {
        fill: #43913d;
      }

      .cls-7 {
        fill: #a67742;
      }

      .cls-8 {
        fill: #4b9146;
      }

      .cls-9 {
        fill: #59a154;
      }

      .cls-10 {
        fill: #4f9949;
      }

      .cls-11 {
        fill: #459440;
      }

      .cls-12 {
        fill: #8fcf65;
      }

      .cls-13 {
        fill: #4ba145;
      }

      .cls-14 {
        fill: #ba8345;
      }
    </style>
  </defs>
  <path class="cls-2" d="m322.86,654.48c32.73-72.52,101.79-125.2,178.09-147.74,76.3-22.55,158.98-17.07,235.42,4.99,59.36,17.13,116.44,44.11,177.84,51.01,119.2,13.4,242.94-59.91,288.47-170.88-13.61,82.11-89.82,140.46-168.44,167.79-53.13,18.47-110.35,26.75-166.09,19.21-92.22-12.49-176.68-67.22-269.74-67.75-60.37-.34-119.13,22.72-169.42,56.13-50.29,33.41-93.04,76.84-106.13,87.25Z"/>
  <path class="cls-2" d="m877.99,562.26c32.63,45.44,87.92,73.72,143.87,73.57,39.73-.1,78.68-13.58,118.39-12.25-38.75,13.59-78.18,27.32-119.21,29.25s-84.61-9.59-112.51-39.72c-9.37-10.12-16.71-22-26.33-31.88-9.62-9.88-22.48-17.91-36.24-17.16,2.23-1.18,4.45-2.35,32.03-1.81Z"/>
  <path class="cls-2" d="m638.45,493.08c46.59,3.04,81.19-48.08,127.69-52.26,25.66-2.31,49.98,10.13,74.34,18.51,47.91,16.48,100.98,17.56,149.52,3.04-21.1,22.95-55.28,29.29-86.3,26.11-31.01-3.18-60.58-14.36-91.02-21.1-30.44-6.74-63.77-8.65-91.42,5.76-13.89,7.24-25.66,18.27-40.02,24.52s-33.54,6.21-42.8-4.58Z"/>
  <path class="cls-2" d="m580.11,510.44c23.04,14.75,40.59,37.88,48.59,64.05,2.23,7.31,3.82,15.01,8.11,21.33,7.87,11.62,22.65,15.84,35.98,20.27,43.42,14.44,83.2,39.72,114.71,72.9-33.12-25.05-71.98-42.47-112.71-50.52-22.49-4.45-48.01-7.44-62.14-25.5-10.69-13.67-11.66-32.28-16.83-48.86-7.43-23.86-24.6-44.53-46.7-56.21,1.24-2.68,6.08-13.41,31,2.54Z"/>
  <path class="cls-2" d="m1003.59,641.19c12.22,16.66,34.01,23.44,54.62,24.84s41.38-1.53,61.93.52c-17.23,2.63-34.45,5.26-51.68,7.89-13.14,2.01-27.29,3.86-39.13-2.18-9.6-4.91-16.09-14.27-24.82-20.6-6.81-4.94-14.99-7.96-.93-10.46Z"/>
  <path class="cls-2" d="m816.87,456.93c2.24-8.62,5.01-18.01,12.45-22.91,5.99-3.95,13.61-4.02,20.77-4.49,20.47-1.35,40.64-7.1,58.74-16.74-4.79,12.41-19.75,17.16-32.96,18.69s-27.71,1.84-37.82,10.49c-7.54,6.45-12.85,17.48-21.18,14.97Z"/>
  <path class="cls-2" d="m658.47,620.43c9.92-5.65,13.84-18,22.32-25.64,10.82-9.75,26.89-10.2,41.45-9.81,14.56.39,30.43.72,42.05-8.06-6,10.45-18.63,15.05-30.52,17s-24.34,2.15-35.26,7.24c-12.28,5.72-21.01,16.84-40.04,19.28Z"/>
  <path class="cls-2" d="m709.43,640.86l9.62,40.97c.79,3.38,1.61,6.81,3.29,9.85,7.88,14.25,29.85,13.46,40.48,25.79-9.51-9.6-19.01-19.19-28.52-28.79-1.9-1.92-3.82-3.86-5.27-6.14-7.72-12.1-.23-29.42-7.49-41.8-4.81.7-9.84-.3-12.1.12Z"/>
  <path class="cls-2" d="m1018.49,556.1c16.46-12.5,20.07-35.67,32.36-52.28,19.54-26.43,58.37-33.13,77.13-60.11-3.46,11.72-13.48,20.24-23.68,26.97s-21.31,12.61-29.14,21.99c-7.54,9.03-11.37,20.51-17.16,30.75-10.52,18.59-27.94,33.16-39.5,32.69Z"/>
  <path class="cls-7" d="m328.63,647.77c43.13-59.2,106.43-102.05,175.14-127.41,23.94-8.84,52.44-15.17,73.61-.92,30.22,20.34,23.75,71.23,52.01,94.23,11.99,9.76,30.76,11.3,45.64,15.46,33.04,9.24,64.56,23.91,92.9,43.25-21.88-14.34-48.52-18.81-74.12-24.19s-57.69-9.53-76.46-27.75c-14.39-13.97-17.14-36.11-24.24-54.87-4.7-12.43-9.55-25.71-20.11-33.78-8.9-6.81-20.75-8.84-31.9-7.7s-21.78,5.15-32.12,9.45c-67.28,27.93-128.92,69.34-180.36,114.24Z"/>
  <path class="cls-7" d="m601.52,528.89c-7.63-4.66-20.68-13.91-28.3-18.57,48-9.73,98.37,8.72,144.63,24.82,46.26,16.1,90.97,31.4,139.72,36.06,15.98,1.53,20.59,5.17,29.48,15.36,6.2,7.1,18.99,24.69,25.43,30.59,28.11,25.7,56.85,29.41,94.6,34.39-41.4,11.82-89.24-3.67-115.85-37.52-7.28-9.26-13.22-19.86-22.55-27.05-13.11-10.09-30.58-11.79-46.98-13.98-30.88-4.12-61.35-11.33-90.8-21.46-23.9-8.22-47.14-18.37-71.38-25.56s-43.95-11.99-68.89-7.9c6.07,5.31,11.64,10.31,10.89,10.83Z"/>
  <path class="cls-7" d="m1008.43,654.17c-2.26-.59-4.98-1.57-7.48-1.28,1.18-.86,6.13-1.35,6.13-1.35,0,0,1.04.99,1.35,2.64Z"/>
  <path class="cls-7" d="m678.9,498.61c9.81-6.31,18.07-13.76,27.87-20.07,12.17-7.83,24.59-15.78,38.58-19.49,23.25-6.16,47.77.07,71,6.29,22.83,6.11,45.66,12.21,68.51,18.33,26.81,4.53,54.6,3.11,80.81-4.13-21.93,10.22-47.17,11.19-71.15,7.94-23.98-3.25-47.2-10.47-70.74-16.07-24.36-5.79-49.78-9.85-74.38-5.13-26.15,5.02-47.88,22.26-70.5,32.33Z"/>
  <path class="cls-7" d="m893.86,581.23c14.02,0,35.46-.53,50.28-3,53.31-8.89,101.63-18.82,147.7-47.09-7.04,8-16.58,13.45-26.51,17.31s-20.1,9.27-30.37,12.11c-23.65,6.54-46.87,12.44-70.75,18.1s-48.16,8.93-70.35,2.58Z"/>
  <path class="cls-7" d="m1006.42,651.72c8.03,10.46,20.83,17.71,33.61,20.98,12.77,3.27,26.43,2.58,39.05-1.24-13.22,4.71-27.59,7.32-41.32,4.44-13.73-2.88-26.05-11.84-31.34-24.19Z"/>
  <path class="cls-14" d="m711.28,510.18l-10.47,2.78c.82,3.02,2.97,5.8,5.96,6.73s6.69-.46,7.82-3.38-1.23-6.69-3.31-6.13Z"/>
  <path class="cls-14" d="m812.06,550.06c-2.74,1.03-5.48,2.07-8.22,3.1,2.19,1.94,4.5,3.94,7.34,4.65s6.35-.36,7.42-3.09-1.99-6.37-6.54-4.66Z"/>
  <path class="cls-14" d="m778.64,441.73l-8.92,5.94c2.34,1.33,4.79,2.69,7.47,2.81s5.65-1.42,6.2-4.05-2.89-5.95-4.75-4.71Z"/>
  <path class="cls-14" d="m673.47,505.06l-12.64,4c2.99,2.51,6.78,4.86,10.57,3.91s5.61-7.1,2.07-7.91Z"/>
  <path class="cls-14" d="m456.36,525.81c-3.06,3.01-6.13,6.02-9.19,9.04,2.68,2.83,7.71,2.91,10.48.18s2.74-7.78-1.29-9.21Z"/>
  <path class="cls-14" d="m613.56,562.14c-.13,1.94-.24,3.99.64,5.72s3.13,2.92,4.83,1.97c1.86-1.05,1.83-3.79,1.02-5.76-.66-1.59-1.78-3.12-3.41-3.65s-3.77.41-3.07,1.72Z"/>
  <path class="cls-14" d="m649.63,611.52l-8.19-1.82c.37,2.15,1.93,4.05,3.97,4.84s4.47.42,6.19-.92c.58-1.42-.47-3.24-1.96-2.1Z"/>
  <path class="cls-14" d="m696.03,590.07l-6.52,5.09c2.49,1.07,5.52.79,7.77-.73,1.3-.88,2.41-2.38,2.09-3.92s-2.7-2.38-3.34-.44Z"/>
  <path class="cls-14" d="m591.71,493.65l-7.1,3.07c1.39,1.14,3.09,1.9,4.86,2.19,1.79.29,3.9-.05,4.9-1.56s-.4-4.67-2.66-3.7Z"/>
  <path class="cls-14" d="m943.34,570c-4,1.1-8,2.21-12,3.31,1.26,2.35,4.17,3.68,6.77,3.11s4.68-3,5.22-6.42Z"/>
  <path class="cls-14" d="m1057.32,508.29c-3.18,2.81-6.36,5.62-9.53,8.42,2.61,1.64,6.31,1.29,8.57-.81s2.87-5.77.96-7.62Z"/>
  <path class="cls-14" d="m1169.14,457.04l-11.09,9.15c2.18,2.04,5.85,2.24,8.24.44s3.22-5.37,2.85-9.6Z"/>
  <path class="cls-14" d="m1034.11,640.12l-11.51-1.6c-1.27,3.4,1.18,7.65,4.76,8.25s7.28-2.61,6.75-6.65Z"/>
  <path class="cls-14" d="m1089.28,630.69l-12.08,5.04c2.03,2.45,5.58,3.51,8.62,2.59s5.41-3.77,5.74-6.93c-1.55.08-3.09.17-2.28-.7Z"/>
  <path class="cls-14" d="m941.98,622.78c-3.91-2.54-7.82-5.08-11.73-7.62-1.2,4.3,1.49,9.31,5.75,10.67,1.73.55,3.79.49,5.19-.68s1.66-3.65.79-2.37Z"/>
  <path class="cls-14" d="m904.62,475.15l-11.05,1.02c.34,3.2,3.59,5.79,6.78,5.4s5.73-3.68,4.27-6.43Z"/>
  <path class="cls-14" d="m779.58,531.04l-11.3-1.87c-1.45,3.77,1.65,8.51,5.68,8.7s7.56-4.25,5.62-6.83Z"/>
  <path class="cls-14" d="m873.06,557.58l-6.9,4.36c1.91.68,3.87,1.36,5.89,1.25s4.12-1.23,4.77-3.15-.81-4.33-3.76-2.47Z"/>
  <path class="cls-14" d="m412.56,552.65c-2.98,3.34-5.96,6.69-8.94,10.03,3.09.37,6.29.73,9.26-.18s5.68-3.46,5.76-6.57-3.57-6.11-6.09-3.28Z"/>
  <path class="cls-14" d="m527.35,504.25l-6.11,5.75c5.45.96,11.27-.39,15.75-3.65-3.66-2.13-8.18-3.47-9.64-2.1Z"/>
  <path class="cls-14" d="m1009.59,557.19l-1.48,5.97c3.58.1,6.27-4.57,1.48-5.97Z"/>
  <path class="cls-14" d="m1125.9,498.43l-8.41,10.57c2.99.01,6.15-.02,8.72-1.55s4.16-5.13,2.5-7.62-6.7-1.26-2.81-1.4Z"/>
  <path class="cls-14" d="m821,454.18l-13.26-2.03c-1.06,4.22,3.04,8.85,7.36,8.3s7.13-6.08,5.9-6.27Z"/>
  <path class="cls-14" d="m719.01,462.82c-2.89,2.77-5.77,5.54-8.66,8.3,2.94,1.89,7.15,1.45,9.65-.99s3.01-6.65-.99-7.31Z"/>
  <path class="cls-14" d="m989.37,638.74l-13.18,2.18c4.92,2.71,10.89,3.46,16.33,2.04-1.05-2.12-2.12-4.38-3.15-4.21Z"/>
  <path class="cls-14" d="m748.36,535.35l-7.02,2.79c1.79,2.33,4.23,4.37,7.15,4.76s6.22-1.35,6.79-4.23-2.33-5.14-6.91-3.32Z"/>
  <path class="cls-3" d="m836.22,440.7c-.93-10.86-1.71-22.48,3.64-31.98,3.45-6.12,9.08-10.65,14.57-15.03,21.21-16.89,42.42-33.78,63.63-50.67-17.87,24.81-35.73,49.63-53.6,74.44-6.77,9.41-16.79,20.01-28.24,23.24Z"/>
  <path class="cls-3" d="m921.62,481.8c21.33,4.27,43.64,8.99,60.31,22.97,10.58,8.87,20.16,21.9,33.96,21.8-13.99-2.45-27.97-4.91-41.96-7.36-10.14-1.78-20.96-3.9-28.26-11.17-4.96-4.94-7.64-11.65-11.44-17.52s-9.68-11.34-12.61-8.72Z"/>
  <path class="cls-3" d="m826.59,550.13c-1.85,19.67,3.8,39.95,15.56,55.82,11.76,15.88,29.51,27.2,48.86,31.16-17.16-10.3-25.77-30.01-34.4-48.07s-20.01-37.15-30.02-38.91Z"/>
  <path class="cls-11" d="m1076.12,485.62c-3.92-11.45-7.9-23.4-6.34-35.39,2.6-19.99,19.54-34.75,35.33-47.53-10.1,29.65-20.19,59.3-28.99,82.92Z"/>
  <path class="cls-10" d="m1136.38,492.92c11.89-13.45,29.7-21.05,47.63-21.89,29.33-1.38,59.87,13.9,87.1,2.92-48.45,16.22-100.48,21.66-134.73,18.97Z"/>
  <path class="cls-3" d="m1043.13,642.54c24.67-18.04,37.33-50.74,65-63.72,11.14-5.23,23.63-6.65,35.87-8-25.65,34.06-63.37,58.83-100.86,71.71Z"/>
  <path class="cls-3" d="m958.02,632.99c-6.79,34.37,10.41,72.15,40.79,89.61-10.77-16.21-18.34-34.53-22.16-53.61-1.46-7.32-2.42-14.88-5.72-21.59-3.3-6.7-9.59-12.54-12.91-14.41Z"/>
  <path class="cls-3" d="m696.84,635.48c27.76-20.83,65.7-27.34,98.82-16.96-29.29,13.02-63.71,14.03-98.82,16.96Z"/>
  <path class="cls-8" d="m726.19,689.18c32.97-5.8,68.52,6,91.48,30.36-21.7-7.77-43.4-15.55-65.09-23.32-13.64-4.89-28.02-10.3-26.38-7.04Z"/>
  <path class="cls-4" d="m863.74,471.34c-5.45,8.9-2.95,20.95,3.35,29.27,6.3,8.32,15.67,13.69,24.91,18.54s18.82,9.57,26.07,17.09c-11.29-19.88-22.87-40.11-39.81-55.46-5.7-5.17-11.96-9.72-14.52-9.44Z"/>
  <path class="cls-3" d="m640.11,615.32c-5.23,9.03-2.98,20.91,2.88,29.54,5.86,8.63,14.72,14.69,23.48,20.37,8.76,5.67,17.8,11.33,24.32,19.48-8.38-31.87-30.62-59.84-50.68-69.39Z"/>
  <path class="cls-1" d="m989.37,639.09c2.63-12.99,11.26-24.15,21.63-32.4,10.38-8.25,22.5-13.96,34.5-19.6-10.36,25.96-33.72,46.34-56.13,52Z"/>
  <path class="cls-3" d="m1069.67,532.6c31.2-13.87,68.29-13.82,99.46.13-20.79,3.92-41.69,7.86-62.84,8.36-5.17.12-10.53,0-15.22-2.2s-8.53-6.98-21.4-6.29Z"/>
  <path class="cls-3" d="m1177.45,444.16l-10.09-69.33c-4.41,13.15-8.88,26.62-8.7,40.49s5.88,28.48,18.79,28.84Z"/>
  <path class="cls-8" d="m1072.98,668.01c20.3,11.17,40.61,22.33,60.91,33.5-14.21,3.61-29.92.82-42.02-7.46-12.1-8.28-20.38-21.92-18.89-26.03Z"/>
  <path class="cls-3" d="m724.27,515.39c4.98-10.7,17.96-15.44,29.76-15.35s23.24,3.87,34.95,5.33,24.81.1,33.16-8.24c-28.89,23.3-71.65,27.79-97.87,18.25Z"/>
  <path class="cls-3" d="m492.7,521.01c7.48-17.91,15.74-36.8,31.7-47.84,8.99-6.21,19.67-9.37,30.16-12.44-15.73,28.12-38.75,52.13-61.86,60.28Z"/>
  <path class="cls-13" d="m419.87,566.85c11.1-8.96,27.56-5.11,40.57.74,13.01,5.84,26.68,13.45,40.65,10.6-27.62,14.78-64.61,9.38-81.22-11.34Z"/>
  <path class="cls-8" d="m720.72,460.65c1.29-22.2,7.38-44.11,17.73-63.8,7.88,27.06-1.29,58.31-17.73,63.8Z"/>
  <path class="cls-3" d="m952.27,566.7c17.57,5.76,33.9,15.29,47.55,27.77-21.29,6.4-46.47-7.9-47.55-27.77Z"/>
  <path class="cls-3" d="m909.34,475.04c-3.57-12.38,7.86-24.17,19.62-29.44s25.36-7.59,34.65-16.53c-13.83,22.23-34.54,40.12-54.27,45.97Z"/>
  <path class="cls-3" d="m1187.18,425.39c21.39-18.07,47.37-30.65,74.8-36.24-18.21,23.57-48.93,36.86-74.8,36.24Z"/>
  <path class="cls-3" d="m704.81,587.41c2.58-21.47,18-40.9,38.34-48.27-7.27,21.53-23.06,40.06-38.34,48.27Z"/>
  <path class="cls-3" d="m779.88,450.02c4.41,9.38,15.38,13.27,25.1,16.87,9.71,3.6,20.45,9.25,22.46,19.41-12.45,2.19-25.82-1.53-35.35-9.83s-15.06-21.02-12.21-26.45Z"/>
  <path class="cls-6" d="m608.45,541.23c23.01-6.96,49.72.33,65.99,18.03-13.49.17-27.17.32-40.23-3.07-13.06-3.39-25.64-10.83-25.76-14.96Z"/>
  <path class="cls-3" d="m912.48,571.29c7.75-23.35,33.52-39.22,57.86-35.64-14.81,21.41-39.54,35.64-57.86,35.64Z"/>
  <path class="cls-9" d="m627.46,499.2c-1.05-6.68,2.28-13.43,7.01-18.26s10.75-8.16,16.52-11.68,11.53-7.46,15.3-13.08c-4.45,9.72-8.99,19.57-15.89,27.74s-16.58,14.58-22.95,15.28Z"/>
  <path class="cls-12" d="m837.59,438.9c11.44-18.06,23.79-35.54,36.99-52.36,7.58-9.66,16.06-19.54,27.7-23.43-28.05,18.02-39.15,54.8-64.69,75.79Z"/>
  <path class="cls-12" d="m931.91,486.56c22.09,9.48,43.45,20.69,63.8,33.5-25.85-6.1-45.66-27.52-63.8-33.5Z"/>
  <path class="cls-12" d="m913.02,569.46c6.36-3.63,9.39-11.04,14.36-16.41,4.6-4.98,10.87-8.18,17.37-10.11s13.29-2.68,20.03-3.42c-13.87,1.45-27.18,7.82-37.01,17.73-5.26,5.3-10.15,11.93-14.75,12.21Z"/>
  <path class="cls-12" d="m725.98,513.3c12.04.94,23.24-5.86,35.12-8.05,12.51-2.31,25.32.57,37.71,3.43-12.03-2.39-24.54-2.4-36.57,0-13.57,2.7-27.44,8.4-36.25,4.62Z"/>
  <path class="cls-12" d="m721.29,456.55c12.81-11.05,19.02-29.23,15.66-45.81,4.94,16.42-1.9,35.66-15.66,45.81Z"/>
  <path class="cls-12" d="m781.04,454.05c3.66,7.78,10.53,13.69,18.11,17.74s15.92,6.45,24.19,8.81c-16.66,1.13-33.52-8.93-42.29-26.55Z"/>
  <path class="cls-12" d="m911.95,470.4c3.94-8.71,11.2-15.86,19.95-19.69,6.75-2.95,14.62-4.18,19.74-9.47-4.17,4.18-9.66,6.76-15.12,9.01s-11.08,4.32-15.9,7.74c-4.82,3.42-8.83,8.49-8.67,12.4Z"/>
  <path class="cls-12" d="m865.2,472.27c-.99,7.79,2.76,15.57,8.08,21.35,5.31,5.79,12.1,9.97,18.63,14.33,6.54,4.36,13.05,9.11,17.44,15.62-10.72-6.08-21.57-12.26-30.37-20.9s-15.44-20.15-13.78-30.41Z"/>
  <path class="cls-12" d="m630.46,496.8c4.51-11.52,13.64-21.15,24.9-26.27-9.43,8.38-17.83,17.93-24.9,26.27Z"/>
  <path class="cls-12" d="m497.12,517.23c9.41-7.05,14.67-18.15,21.11-27.98s15.69-19.4,27.43-20c-11.1,2.97-18.86,12.78-25.19,22.38s-12.51,20.01-23.36,25.6Z"/>
  <path class="cls-12" d="m615.37,542.61c11.57.14,23.11,2.72,33.63,7.52,6.25,2.85,12.7,6.57,19.5,5.59-9.88.73-19.29-3.77-28.47-7.5s-19.56-6.81-24.66-5.62Z"/>
  <path class="cls-12" d="m710.2,580.84c4.8-2.84,6.2-8.96,8.21-14.17,3.72-9.67,11.03-17.91,20.18-22.75-7.29,4.66-11.09,13.03-15.11,20.69s-9.38,15.61-13.27,16.24Z"/>
  <path class="cls-12" d="m704.62,631.52c26.89-12.38,57.33-16.9,86.65-12.87-31.43-.92-63.03,4.56-86.65,12.87Z"/>
  <path class="cls-12" d="m827.98,552.57c2.42,29.84,19.26,58.18,44.33,74.56-13.8-5.96-20.99-20.93-27.03-34.7-5.98-13.66-11.97-27.32-17.3-39.86Z"/>
  <path class="cls-12" d="m1079,479.72c-4.45-24.26,4.35-50.54,22.51-67.22-10.08,6.38-17.87,16.28-21.7,27.58s-3.66,23.9-.81,39.64Z"/>
  <path class="cls-12" d="m1174.82,439.32c-12.86-10.56-16.91-30.47-9.19-45.21-3.52,7.56-3.54,16.4-1.52,24.5,2.03,8.09,5.97,15.57,10.7,20.72Z"/>
  <path class="cls-12" d="m1193.09,421.73c20.77-9.86,42.09-18.56,63.83-26.04-21.77,12.95-45.93,21.86-63.83,26.04Z"/>
  <path class="cls-12" d="m1144.05,489.77c8.48-4.46,17.03-8.95,26.25-11.54,9.22-2.59,19.28-3.18,28.26.16,12.45,4.63,26.04,6.16,39.21,4.41-32.61-1.39-65.96-2.69-93.71,6.96Z"/>
  <path class="cls-12" d="m1081.34,529.52c23.81-1.21,47.75-.1,71.35,3.28-24.94,1.41-50.03.25-71.35-3.28Z"/>
  <path class="cls-12" d="m1054.46,634.68c28.21-18.52,55.24-38.84,80.88-60.78-21.63,26.41-49.31,47.85-80.88,60.78Z"/>
  <path class="cls-12" d="m994.22,632.13c17.34-9.13,32.39-22.56,43.44-38.75-6.25,9.15-12.55,18.36-20.3,26.28s-17.12,14.58-23.13,12.47Z"/>
  <path class="cls-12" d="m961.33,640.36c-2.7,24.35,6.45,49.74,24.06,66.77-15.08-20.87-23.62-46.39-24.06-66.77Z"/>
  <path class="cls-12" d="m1078.64,671.22c11.06,15.23,28.32,25.81,46.9,28.75-19.1-1.89-37.1-12.83-46.9-28.75Z"/>
  <path class="cls-12" d="m641.3,616.48c6.01,22.03,29.27,34.8,39.81,55.06-11.66-11.69-23.44-23.52-31.98-37.66-3.91-6.48-7.11-13.39-7.83-17.4Z"/>
  <path class="cls-12" d="m424.29,565.37c9.99,5.39,20.07,10.82,30.95,14.04s22.78,4.09,33.5.33c-11.81,3.99-24.76.35-36.39-4.17-11.62-4.51-23.38-10-28.06-10.2Z"/>
  <path class="cls-5" d="m845.05,438.32l-17.71,7.23"/>
</svg>