<svg id="Component_2_2" data-name="Component 2 – 2" xmlns="http://www.w3.org/2000/svg" xmlns:xlink="http://www.w3.org/1999/xlink" width="233.43" height="313.298" viewBox="0 0 233.43 313.298">
  <defs>
    <clipPath id="clip-path">
      <path id="Path_2" data-name="Path 2" d="M0,0H233.43V255.079H0Z"/>
    </clipPath>
  </defs>
  <path id="Path_15" data-name="Path 15" d="M0,0S2.258,10.8,62.849,10.8s66-10.8,66-10.8-5.406,54.682-66,54.682S0,0,0,0Z" transform="translate(180.256 85.923) rotate(180)" fill="#c44f54"/>
  <g id="vild-mad-logo" transform="translate(0 58.219)">
    <g id="Group_1" data-name="Group 1" transform="translate(0 0)" clip-path="url(#clip-path)">
      <path id="Path_1" data-name="Path 1" d="M19.061,49.935,97.721,5.054a38.307,38.307,0,0,1,38.122,0L214.5,49.935A37.57,37.57,0,0,1,233.564,82.6v89.762A37.729,37.729,0,0,1,214.5,205.027l-78.66,44.881a38.306,38.306,0,0,1-38.122,0l-78.66-44.881A37.411,37.411,0,0,1,0,172.362V82.6A37.73,37.73,0,0,1,19.061,49.935" transform="translate(0 -0.008)" fill="#00a84e"/>
    </g>
    <path id="Path_3" data-name="Path 3" d="M25.834,56.059A1.266,1.266,0,0,1,27.042,54.2h7.383a1.217,1.217,0,0,1,1.208.8l13.96,31.072h.671L64.225,55a1.216,1.216,0,0,1,1.208-.8h7.383a1.266,1.266,0,0,1,1.208,1.859l-22.417,48.6a1.36,1.36,0,0,1-1.208.8h-.671a1.217,1.217,0,0,1-1.208-.8Zm56.512-.4a1.436,1.436,0,0,1,1.342-1.328h6.846a1.436,1.436,0,0,1,1.342,1.328v47.8a1.436,1.436,0,0,1-1.342,1.328H83.688a1.436,1.436,0,0,1-1.342-1.328Zm22.819,0a1.338,1.338,0,0,1,1.342-1.328h6.712a1.436,1.436,0,0,1,1.342,1.328v40.5H133.22a1.338,1.338,0,0,1,1.342,1.328v5.975a1.338,1.338,0,0,1-1.342,1.328H106.508a1.338,1.338,0,0,1-1.342-1.328Zm38.256,0a1.338,1.338,0,0,1,1.342-1.328H162.08a25.3,25.3,0,1,1,0,50.591H144.764a1.436,1.436,0,0,1-1.342-1.328ZM161.14,95.894c9.53,0,16.376-7.038,16.376-16.465A16,16,0,0,0,161.14,62.964h-8.322V95.894Z" transform="translate(8.798 17.769)" fill="#fff"/>
    <g id="Group_2" data-name="Group 2" transform="translate(36.759 139.822)">
      <path id="Path_4" data-name="Path 4" d="M36.13,106.362a1.322,1.322,0,0,1,1.342-1.062h1.208a1.261,1.261,0,0,1,1.208.664L56,139.957h.268l16.108-33.993a1.261,1.261,0,0,1,1.208-.664h1.208a1.322,1.322,0,0,1,1.342,1.062l8.591,48.466c.268,1.062-.4,1.593-1.342,1.593H76.534a1.442,1.442,0,0,1-1.342-1.062l-4.3-27.354h-.268L57.876,156.289a1.217,1.217,0,0,1-1.208.8H55.326a1.216,1.216,0,0,1-1.208-.8L41.231,128.006h-.268l-4.3,27.354a1.442,1.442,0,0,1-1.342,1.062H28.748a1.285,1.285,0,0,1-1.342-1.593Z" transform="translate(-27.385 -105.3)" fill="#fff"/>
    </g>
    <g id="Group_3" data-name="Group 3" transform="translate(98.527 139.689)">
      <path id="Path_5" data-name="Path 5" d="M73.534,154.6,96.219,106a1.359,1.359,0,0,1,1.208-.8H98.1a1.216,1.216,0,0,1,1.208.8l22.417,48.6a1.266,1.266,0,0,1-1.208,1.859h-6.309a2.124,2.124,0,0,1-2.148-1.461l-3.624-7.834H86.823L83.2,154.994a2.266,2.266,0,0,1-2.148,1.461H74.742C73.668,156.588,73.131,155.658,73.534,154.6Zm31.545-15.27L97.83,123.391h-.268l-7.114,15.934Z" transform="translate(-73.4 -105.2)" fill="#fff"/>
    </g>
    <g id="Group_4" data-name="Group 4" transform="translate(152.22 140.619)">
      <path id="Path_6" data-name="Path 6" d="M113.4,107.228a1.338,1.338,0,0,1,1.342-1.328h17.316a25.3,25.3,0,1,1,0,50.591H114.742a1.436,1.436,0,0,1-1.342-1.328Zm17.719,40.234c9.531,0,16.376-7.038,16.376-16.465a16,16,0,0,0-16.376-16.465H122.8v32.93Z" transform="translate(-113.4 -105.9)" fill="#fff"/>
    </g>
  </g>
  <rect id="Rectangle_35" data-name="Rectangle 35" width="185.632" height="35.607" rx="17.803" transform="translate(21.585 257.99)" fill="#f23d3e"/>
  <path id="Path_25" data-name="Path 25" d="M2.184-.456A.456.456,0,0,0,2.64,0H4.848A.472.472,0,0,0,5.3-.456V-6.528h5.928a.472.472,0,0,0,.456-.456V-8.952a.472.472,0,0,0-.456-.456H5.3V-13.92h7.1a.456.456,0,0,0,.456-.456v-1.968a.456.456,0,0,0-.456-.456H2.64a.456.456,0,0,0-.456.456ZM14.52-8.376A8.563,8.563,0,0,0,23.136.24a8.584,8.584,0,0,0,8.64-8.616,8.624,8.624,0,0,0-8.64-8.664A8.6,8.6,0,0,0,14.52-8.376Zm3.12,0a5.552,5.552,0,0,1,5.5-5.544,5.573,5.573,0,0,1,5.52,5.544,5.531,5.531,0,0,1-5.52,5.5A5.511,5.511,0,0,1,17.64-8.376ZM34.92-.456A.456.456,0,0,0,35.376,0h2.208a.472.472,0,0,0,.456-.456v-6.12H40.7L43.9-.216A.411.411,0,0,0,44.28,0H46.8a.454.454,0,0,0,.408-.7l-3.288-6.1a5.3,5.3,0,0,0,3.552-4.848A5.2,5.2,0,0,0,42.24-16.8H35.376a.456.456,0,0,0-.456.456Zm3.144-8.688V-13.92h3.912a2.388,2.388,0,0,1,2.376,2.328,2.444,2.444,0,0,1-2.376,2.448ZM56.208-.456A.456.456,0,0,0,56.664,0h5.808C65.4,0,67.7-1.944,67.7-4.632a4.312,4.312,0,0,0-3.12-3.912,4.571,4.571,0,0,0,2.64-3.816c0-2.52-2.208-4.44-5.064-4.44h-5.5a.456.456,0,0,0-.456.456Zm3.1-9.288v-4.2h2.568a1.959,1.959,0,0,1,2.064,2.04,2.057,2.057,0,0,1-2.064,2.16Zm0,6.912V-7.1H61.92a2.324,2.324,0,0,1,2.448,2.088,2.142,2.142,0,0,1-2.16,2.184Zm11.04,2.28.24.24a.45.45,0,0,0,.624.024l1.56-1.56A8.439,8.439,0,0,0,78.432.24a8.6,8.6,0,0,0,8.64-8.64,8.658,8.658,0,0,0-2.112-5.64l1.632-1.632a.449.449,0,0,0,0-.624l-.24-.24a.449.449,0,0,0-.624,0L84.1-14.928a8.722,8.722,0,0,0-5.664-2.112,8.6,8.6,0,0,0-8.616,8.664A8.634,8.634,0,0,0,71.88-2.712L70.32-1.176A.45.45,0,0,0,70.344-.552Zm3.792-4.416a5.45,5.45,0,0,1-1.2-3.408,5.552,5.552,0,0,1,5.5-5.544A5.66,5.66,0,0,1,81.888-12.7ZM75-4.08l7.728-7.728A5.284,5.284,0,0,1,83.952-8.4a5.552,5.552,0,0,1-5.52,5.52A5.518,5.518,0,0,1,75-4.08ZM90.192-.456A.456.456,0,0,0,90.648,0h2.208a.472.472,0,0,0,.456-.456v-6.12h2.664l3.192,6.36A.411.411,0,0,0,99.552,0h2.52a.454.454,0,0,0,.408-.7l-3.288-6.1a5.3,5.3,0,0,0,3.552-4.848,5.2,5.2,0,0,0-5.232-5.16H90.648a.456.456,0,0,0-.456.456Zm3.144-8.688V-13.92h3.912a2.388,2.388,0,0,1,2.376,2.328,2.444,2.444,0,0,1-2.376,2.448Zm12.84,8.688a.472.472,0,0,0,.456.456h2.184a.456.456,0,0,0,.456-.456v-10.32h.024L119.328.24h.576a.451.451,0,0,0,.456-.432V-16.344a.472.472,0,0,0-.456-.456H117.7a.456.456,0,0,0-.456.456v9.912h-.024L107.232-17.04h-.6a.451.451,0,0,0-.456.432Z" transform="translate(57.256 284.597)" fill="#fff"/>
  <ellipse id="Ellipse_44" data-name="Ellipse 44" cx="22.368" cy="24.162" rx="22.368" ry="24.162" transform="translate(38.554 74.36)" fill="#d4f2e3"/>
  <ellipse id="Ellipse_45" data-name="Ellipse 45" cx="11.57" cy="12.462" rx="11.57" ry="12.462" transform="translate(51.41 89.62)"/>
  <ellipse id="Ellipse_46" data-name="Ellipse 46" cx="22.368" cy="24.162" rx="22.368" ry="24.162" transform="translate(152.196 74.36)" fill="#d4f2e3"/>
  <ellipse id="Ellipse_47" data-name="Ellipse 47" cx="11.57" cy="12.462" rx="11.57" ry="12.462" transform="translate(159.395 89.62)"/>
  <ellipse id="Ellipse_48" data-name="Ellipse 48" cx="3.085" cy="3.306" rx="3.085" ry="3.306" transform="translate(64.265 105.897)" fill="#fff"/>
  <ellipse id="Ellipse_49" data-name="Ellipse 49" cx="3.085" cy="3.306" rx="3.085" ry="3.306" transform="translate(164.023 105.897)" fill="#fff"/>
  <path id="Path_16" data-name="Path 16" d="M3789.037,1938.956s12.559,12.519,25.664,12.519,26.756-12.519,26.756-12.519-13.65,20.5-26.756,20.5S3789.037,1938.956,3789.037,1938.956Z" transform="translate(-3698.532 -1833.312)" fill="#c84343"/>
  <ellipse id="Ellipse_50" data-name="Ellipse 50" cx="22.368" cy="24.162" rx="22.368" ry="24.162" transform="translate(38.554 74.36)" fill="#d4f2e3"/>
  <ellipse id="Ellipse_51" data-name="Ellipse 51" cx="11.57" cy="12.462" rx="11.57" ry="12.462" transform="translate(51.41 89.62)"/>
  <ellipse id="Ellipse_52" data-name="Ellipse 52" cx="22.368" cy="24.162" rx="22.368" ry="24.162" transform="translate(152.196 74.36)" fill="#d4f2e3"/>
  <ellipse id="Ellipse_53" data-name="Ellipse 53" cx="11.57" cy="12.462" rx="11.57" ry="12.462" transform="translate(159.395 89.62)"/>
  <ellipse id="Ellipse_54" data-name="Ellipse 54" cx="3.085" cy="3.306" rx="3.085" ry="3.306" transform="translate(64.265 105.897)" fill="#fff"/>
  <ellipse id="Ellipse_55" data-name="Ellipse 55" cx="3.085" cy="3.306" rx="3.085" ry="3.306" transform="translate(164.023 105.897)" fill="#fff"/>
  <path id="Path_17" data-name="Path 17" d="M0,3.143c15.386,10.3,17.54,10.442,25.2,10.785,6.514.292,11.153-3.293,15.126-4.964a44.785,44.785,0,0,1,10.378-2.6S28.209-.623,26.952.045C23.1,7.971,0,3.143,0,3.143Z" transform="translate(93.633 0) rotate(47)" fill="#00a84e"/>
</svg>
