<svg xmlns="http://www.w3.org/2000/svg" xmlns:xlink="http://www.w3.org/1999/xlink" width="137.866" height="88.657" viewBox="0 0 137.866 88.657">
  <defs>
    <filter id="Path_18" x="0" y="0" width="137.866" height="88.657" filterUnits="userSpaceOnUse">
      <feOffset dx="2" dy="3" input="SourceAlpha"/>
      <feGaussianBlur stdDeviation="3" result="blur"/>
      <feFlood flood-opacity="0.161"/>
      <feComposite operator="in" in2="blur"/>
      <feComposite in="SourceGraphic"/>
    </filter>
  </defs>
  <g id="Component_14_1" data-name="Component 14 – 1" transform="translate(7 6)">
    <g transform="matrix(1, 0, 0, 1, -7, -6)" filter="url(#Path_18)">
      <path id="Path_18-2" data-name="Path 18" d="M56.183.47c17.744,13.387,56.183,8.049,56.183,17.978S81.019,50.542,56.183,36.427,0,28.378,0,18.449,38.438-12.916,56.183.47Z" transform="translate(7.92 36.88) rotate(-14)" fill="#45a175"/>
    </g>
    <path id="Path_25" data-name="Path 25" d="M.714-4.886A5,5,0,0,0,5.74.14a5.007,5.007,0,0,0,5.04-5.026A5.031,5.031,0,0,0,5.74-9.94,5.019,5.019,0,0,0,.714-4.886Zm.98,0A4.081,4.081,0,0,1,5.74-8.96,4.093,4.093,0,0,1,9.8-4.886,4.069,4.069,0,0,1,5.74-.84,4.057,4.057,0,0,1,1.694-4.886ZM12.922-.266A.266.266,0,0,0,13.188,0h.532a.275.275,0,0,0,.266-.266v-3.29H16.3a3.149,3.149,0,0,0,3.122-3.15A3.131,3.131,0,0,0,16.282-9.8H13.188a.266.266,0,0,0-.266.266Zm1.064-4.326V-8.736h2.226a2.067,2.067,0,0,1,2.128,2,2.139,2.139,0,0,1-2.128,2.142Zm6.734,3.6A4.564,4.564,0,0,0,23.674.14,2.783,2.783,0,0,0,26.7-2.38C26.7-4,25.48-4.718,23.59-5.488c-1.176-.49-1.89-1.036-1.89-1.974,0-.588.448-1.54,1.932-1.54a3.919,3.919,0,0,1,1.834.644.317.317,0,0,0,.49-.126c.056-.084.112-.182.168-.266a.312.312,0,0,0-.084-.476,4.579,4.579,0,0,0-2.394-.714,2.665,2.665,0,0,0-2.982,2.492c0,1.6.924,2.226,2.464,2.9,1.61.672,2.45,1.246,2.45,2.212A1.689,1.689,0,0,1,23.7-.8a3.868,3.868,0,0,1-2.366-1.064c-.2-.168-.35-.056-.49.126-.07.084-.14.182-.21.266A.307.307,0,0,0,20.72-.994Zm8.008.658A.332.332,0,0,0,29.064,0h.406a.341.341,0,0,0,.336-.336V-4.788L34.3-.1a.383.383,0,0,0,.252.1h.714A.276.276,0,0,0,35.5-.434L30.87-5.18l4.424-4.13a.27.27,0,0,0-.168-.49H34.44a.416.416,0,0,0-.266.14L29.806-5.5V-9.464A.341.341,0,0,0,29.47-9.8h-.406a.332.332,0,0,0-.336.336Zm8.582.07A.266.266,0,0,0,37.576,0h.546a.275.275,0,0,0,.266-.266v-3.57h2.674l1.862,3.71A.24.24,0,0,0,43.148,0h.714A.265.265,0,0,0,44.1-.406L42.182-3.962a3.125,3.125,0,0,0,2.072-2.856A3.009,3.009,0,0,0,41.2-9.8H37.576a.266.266,0,0,0-.266.266ZM38.416-4.76V-8.778h2.716A2.036,2.036,0,0,1,43.148-6.8,2.041,2.041,0,0,1,41.132-4.76ZM46.564-.266A.275.275,0,0,0,46.83,0h.56a.275.275,0,0,0,.266-.266V-9.534A.275.275,0,0,0,47.39-9.8h-.56a.275.275,0,0,0-.266.266Zm3.948,0A.266.266,0,0,0,50.778,0h.546a.275.275,0,0,0,.266-.266V-4.088h4.018a.275.275,0,0,0,.266-.266V-4.76a.275.275,0,0,0-.266-.266H51.59V-8.862h4.7a.266.266,0,0,0,.266-.266v-.406a.266.266,0,0,0-.266-.266H50.778a.266.266,0,0,0-.266.266Zm9.352,0A.275.275,0,0,0,60.13,0h.532a.275.275,0,0,0,.266-.266v-8.6h2.436a.266.266,0,0,0,.266-.266v-.406a.266.266,0,0,0-.266-.266H57.428a.266.266,0,0,0-.266.266v.406a.266.266,0,0,0,.266.266h2.436Zm5.306,0A.266.266,0,0,0,65.436,0h5.516a.266.266,0,0,0,.266-.266V-.672a.266.266,0,0,0-.266-.266h-4.7v-3.57h4.018a.266.266,0,0,0,.266-.266V-5.18a.275.275,0,0,0-.266-.266H66.248V-8.862h4.7a.266.266,0,0,0,.266-.266v-.406a.266.266,0,0,0-.266-.266H65.436a.266.266,0,0,0-.266.266Zm8.288,0A.266.266,0,0,0,73.724,0h.546a.275.275,0,0,0,.266-.266v-3.57H77.21l1.862,3.71A.24.24,0,0,0,79.3,0h.714a.265.265,0,0,0,.238-.406L78.33-3.962A3.125,3.125,0,0,0,80.4-6.818,3.009,3.009,0,0,0,77.35-9.8H73.724a.266.266,0,0,0-.266.266ZM74.564-4.76V-8.778H77.28A2.036,2.036,0,0,1,79.3-6.8,2.041,2.041,0,0,1,77.28-4.76Z" transform="translate(19.433 40.328)" fill="#fff"/>
  </g>
</svg>
