<?xml version="1.0" encoding="UTF-8"?>
<svg xmlns="http://www.w3.org/2000/svg" viewBox="0 0 1920 1080">
  <defs>
    <style>
      .cls-1 {
        fill: none;
      }

      .cls-1, .cls-2, .cls-3, .cls-4, .cls-5, .cls-6, .cls-7, .cls-8, .cls-9, .cls-10, .cls-11, .cls-12, .cls-13, .cls-14, .cls-15, .cls-16, .cls-17, .cls-18, .cls-19, .cls-20, .cls-21, .cls-22, .cls-23, .cls-24, .cls-25, .cls-26, .cls-27, .cls-28, .cls-29, .cls-30, .cls-31, .cls-32, .cls-33, .cls-34, .cls-35, .cls-36, .cls-37, .cls-38, .cls-39, .cls-40, .cls-41, .cls-42, .cls-43, .cls-44, .cls-45 {
        stroke-width: 0px;
      }

      .cls-2 {
        fill: #d6665a;
      }

      .cls-2, .cls-3, .cls-4, .cls-5, .cls-6, .cls-7 {
        opacity: .93;
      }

      .cls-3 {
        fill: #834ca7;
      }

      .cls-4 {
        fill: #894fb0;
      }

      .cls-5 {
        fill: #874ead;
      }

      .cls-6 {
        fill: #854daa;
      }

      .cls-7 {
        fill: #814ca5;
      }

      .cls-8 {
        fill: #ffb3ab;
        opacity: .27;
      }

      .cls-9 {
        fill: #dae9f2;
        opacity: .51;
      }

      .cls-10 {
        fill: #ffd4d9;
        opacity: .3;
      }

      .cls-11 {
        fill: #61855e;
      }

      .cls-12 {
        fill: #70818c;
      }

      .cls-13 {
        fill: #4f5954;
      }

      .cls-14 {
        fill: #4e5961;
      }

      .cls-15 {
        fill: #6f8c7c;
      }

      .cls-16 {
        fill: #87a87d;
      }

      .cls-17 {
        fill: #a2b1ba;
      }

      .cls-18 {
        fill: #6e654c;
      }

      .cls-19 {
        fill: #2e363b;
      }

      .cls-20 {
        fill: #37542f;
      }

      .cls-21 {
        fill: #252b27;
      }

      .cls-22 {
        fill: #d1dfe8;
      }

      .cls-23 {
        fill: #debc57;
      }

      .cls-24 {
        fill: #c9594d;
      }

      .cls-25 {
        fill: #cc4b31;
      }

      .cls-26 {
        fill: #e39aac;
      }

      .cls-27 {
        fill: #de735d;
      }

      .cls-28 {
        fill: #d68594;
      }

      .cls-29 {
        fill: #db3d35;
      }

      .cls-30 {
        fill: #8a8c6f;
      }

      .cls-31 {
        fill: #90a4b0;
      }

      .cls-32 {
        fill: #327ead;
      }

      .cls-33 {
        fill: #8f835d;
      }

      .cls-34 {
        fill: #6b4585;
      }

      .cls-35 {
        fill: #857c5d;
      }

      .cls-36 {
        fill: #857b58;
      }

      .cls-37 {
        fill: #857b59;
      }

      .cls-38 {
        fill: #80775b;
      }

      .cls-39 {
        fill: #f0d467;
      }

      .cls-40 {
        fill: #e5e8a7;
      }

      .cls-41 {
        fill: #697d8a;
      }

      .cls-42 {
        fill: #a8463b;
      }

      .cls-42, .cls-43, .cls-44, .cls-45 {
        opacity: .59;
      }

      .cls-43 {
        fill: #64477d;
      }

      .cls-44 {
        fill: #5f4878;
      }

      .cls-45 {
        fill: #5e4670;
      }
    </style>
  </defs>
  <g id="Layer_14" data-name="Layer 14">
    <path class="cls-17" d="m880.74,272.86c-1.68-5.04,2.17-10.58,7.05-12.67,4.88-2.1,10.43-1.67,15.72-1.19,2.3.2,4.69.44,6.67,1.62s3.43,3.6,2.73,5.8c-1,3.13-5.15,3.66-8.44,3.6-9.01-.14-18.01-.29-23.72,2.85Z"/>
    <path class="cls-14" d="m847.69,305.45c-29.31,173.8-56.28,276.72-83.83,440.09-3.17,18.79-4.81,56.29,8.5,70.38,9.38,9.93,28.88,8.44,43.6,9.51,56.44,4.1,88.83,5.77,138.47,7.76,27.69,1.11,78.23-1.32,94.68-29.11,10.25-17.31,11.26-38.1,15.98-63.64,8.37-45.29,16.74-90.58,25.1-135.87,14.64-79.22,21.47-155.67,36.11-234.89,7.87-42.58,17.49-81.67-6.63-102.46-19.8-17.07-56.21-9.44-84.28-8.57-48.37,1.51-91.63,8.1-140,9.61-10.4.32-21.35.8-30.37,5.79-9.02,4.99-17.1,29.99-17.34,31.42Z"/>
    <path class="cls-17" d="m1125.86,354.38c2.2-2.32,6.46-.87,8.01,1.93,1.56,2.79,1.23,6.21.85,9.39-.89,7.55-2,15.63-7.06,21.3-2,2.24-5.32,4.04-7.9,2.52-2.83-1.67-2.53-5.79-1.86-9.01,1.28-6.13,2.56-12.27,3.84-18.4.47-2.27.99-4.63,2.49-6.4,1.49-1.77,4.29-2.67,1.63-1.33Z"/>
    <path class="cls-17" d="m1115.41,403.18c5.56,1.02,9.26,6.74,9.83,12.37.57,5.62-1.28,11.18-3.11,16.52-1,2.94-2.1,6.02-4.44,8.06-2.34,2.04-6.35,2.51-8.37.15-1.65-1.92-1.36-4.78-.98-7.29,1.11-7.33,2.22-14.66,3.33-21.98.35-2.31.79-4.79,2.47-6.42s5.04-1.61,1.28-1.42Z"/>
    <path class="cls-12" d="m919.51,819.35c-18.97-1.98-38.51-2.9-58.25-2.73-.63,1.59-1.25,3.17-1.88,4.76,17.69,2.65,36.32,3.94,55.2,3.84,1.84-2.66,2.75-5.46,4.93-5.87Z"/>
    <path class="cls-17" d="m854.24,325.92c-23.72,158.79-46.1,252.71-68.4,401.97-2.56,17.16-3.62,51.47,8.06,64.5,8.24,9.18,25.13,8.01,37.9,9.13,48.98,4.3,77.09,6.15,120.17,8.46,24.02,1.29,67.84-.44,81.83-25.72,8.72-15.75,9.4-34.76,13.24-58.09,6.81-41.37,13.63-82.74,20.44-124.11,11.92-72.37,17.1-142.27,29.02-214.63,6.41-38.9,14.37-74.58-6.75-93.84-17.34-15.82-48.84-9.19-73.18-8.67-41.93.91-79.39,6.52-121.32,7.43-9.01.2-18.51.52-26.28,5-7.77,4.48-14.54,27.28-14.73,28.58Z"/>
    <g id="Layer_18" data-name="Layer 18">
      <path class="cls-15" d="m863.75,628.55c-13.71-2.3-10.29-1.41-20.7-2.63-6.37-.75-13.62-1.25-18.36,2.93-3.53,3.12-4.64,8-5.56,12.56-1.42,7-1.97,13.42-3.39,20.42-.68,3.37-1.53,8.74-.37,12,1.7,4.74,6.09,6.24,10.95,7.95,8.1,2.86,16.77,4.14,25.36,3.74,5.5-.26,13.04,1.17,17.07-2.46,3.67-3.31,4.68-9.08,5.74-15.4,1.77-10.49,2.17-16.72,2.71-27.34.11-2.1-1.5-9.77-13.46-11.77Z"/>
      <path class="cls-13" d="m873.8,549.07c-13.71-2.3-10.29-1.41-20.7-2.63-6.37-.75-13.62-1.25-18.36,2.93-3.53,3.12-4.64,8-5.56,12.56-1.42,7-1.97,13.42-3.39,20.42-.68,3.37-1.53,8.74-.37,12,1.7,4.74,6.09,6.24,10.95,7.95,8.1,2.86,16.77,4.14,25.36,3.74,5.5-.26,13.04,1.17,17.07-2.46,3.67-3.31,4.68-9.08,5.74-15.4,1.77-10.49,2.17-16.72,2.71-27.34.11-2.1-1.5-9.77-13.46-11.77Z"/>
      <path class="cls-15" d="m885.2,467.78c-13.71-2.3-10.29-1.41-20.7-2.63-6.37-.75-13.62-1.25-18.36,2.93-3.53,3.12-4.64,8-5.56,12.56-1.42,7-1.97,13.42-3.39,20.42-.68,3.37-1.53,8.74-.37,12,1.7,4.74,6.09,6.24,10.95,7.95,8.1,2.86,16.77,4.14,25.36,3.74,5.5-.26,13.04,1.17,17.07-2.46,3.67-3.31,4.68-9.08,5.74-15.4,1.77-10.49,2.17-16.72,2.71-27.34.11-2.1-1.5-9.77-13.46-11.77Z"/>
      <path class="cls-13" d="m937.72,625.82c-14.24-2.27-10.69-1.35-21.5-2.51-6.62-.71-14.15-1.13-19.03,3.5-3.64,3.45-4.75,8.78-5.67,13.75-1.42,7.63-1.95,14.63-3.36,22.27-.68,3.68-1.52,9.53-.29,13.05,1.8,5.13,6.37,6.68,11.42,8.47,8.43,2.98,17.44,4.22,26.35,3.64,5.7-.37,13.55,1.05,17.7-2.97,3.79-3.66,4.79-9.96,5.85-16.84,1.76-11.44,2.12-18.22,2.61-29.78.1-2.29-1.63-10.6-14.06-12.58Z"/>
      <path class="cls-30" d="m948.07,548.26c-14.24-2.27-10.69-1.35-21.5-2.51-6.62-.71-14.15-1.13-19.03,3.5-3.64,3.45-4.75,8.78-5.67,13.75-1.42,7.63-1.95,14.63-3.36,22.27-.68,3.68-1.52,9.53-.29,13.05,1.8,5.13,6.37,6.68,11.42,8.47,8.43,2.98,17.44,4.22,26.35,3.64,5.7-.37,13.55,1.05,17.7-2.97,3.79-3.66,4.79-9.96,5.85-16.84,1.76-11.44,2.12-18.22,2.61-29.78.1-2.29-1.63-10.6-14.06-12.58Z"/>
      <path class="cls-13" d="m958.07,465.56c-14.24-2.27-10.69-1.35-21.5-2.51-6.62-.71-14.15-1.13-19.03,3.5-3.64,3.45-4.75,8.78-5.67,13.75-1.42,7.63-1.95,14.63-3.36,22.27-.68,3.68-1.52,9.53-.29,13.05,1.8,5.13,6.37,6.68,11.42,8.47,8.43,2.98,17.44,4.22,26.35,3.64,5.7-.37,13.55,1.05,17.7-2.97,3.79-3.66,4.79-9.96,5.85-16.84,1.76-11.44,2.12-18.22,2.61-29.78.1-2.29-1.63-10.6-14.06-12.58Z"/>
      <path class="cls-15" d="m1012.11,623.77c-14.71-2.04-11.04-1.17-22.18-2.13-6.83-.59-14.59-.86-19.52,4.06-3.68,3.67-4.71,9.23-5.56,14.42-1.3,7.97-1.7,15.25-3,23.22-.63,3.84-1.37,9.94-.03,13.58,1.96,5.29,6.69,6.8,11.93,8.55,8.73,2.91,18.04,4,27.2,3.2,5.86-.51,13.97.79,18.16-3.48,3.82-3.89,4.72-10.46,5.67-17.64,1.57-11.93,1.81-18.99,2.07-31.02.05-2.38-1.9-10.98-14.73-12.76Z"/>
      <path class="cls-13" d="m1026.46,546.57c-14.62-2.03-10.97-1.17-22.05-2.13-6.79-.59-14.5-.85-19.41,4.07-3.66,3.67-4.69,9.24-5.53,14.43-1.3,7.97-1.7,15.26-3,23.23-.62,3.84-1.37,9.95-.04,13.58,1.94,5.3,6.65,6.8,11.86,8.55,8.68,2.91,17.93,4,27.04,3.19,5.83-.52,13.88.78,18.05-3.49,3.8-3.89,4.7-10.46,5.65-17.65,1.57-11.94,1.81-19,2.08-31.04.05-2.38-1.88-10.99-14.64-12.76Z"/>
      <path class="cls-15" d="m1036.17,464.25c-14.76-1.61-11.06-.85-22.24-1.48-6.84-.39-14.6-.43-19.39,4.63-3.57,3.77-4.44,9.37-5.13,14.58-1.07,8-1.25,15.3-2.32,23.3-.51,3.86-1.08,9.98.37,13.57,2.11,5.23,6.89,6.6,12.18,8.19,8.82,2.65,18.15,3.47,27.28,2.4,5.85-.69,13.98.38,18.05-4.01,3.71-4,4.41-10.59,5.15-17.8,1.22-11.97,1.25-19.03,1.16-31.07-.02-2.38-2.22-10.92-15.1-12.32Z"/>
    </g>
    <path class="cls-9" d="m950.39,294.29c-27.05,1.49-50.67-2.16-70.1,16.72-11.72,11.38-15.99,28.21-19.64,44.13-25.2,110-44.94,221.26-59.11,333.21,26.09-26.07,35.57-63.97,43.97-99.88,14.42-61.62,28.85-123.23,43.27-184.85,3.9-16.66,7.97-33.72,17.5-47.92,12.51-18.64,31.81-38.26,53.46-44.22s37.78-9.51,66.57-16.24c-43.78-4.15-55.29-2.1-75.93-.96Z"/>
    <path class="cls-31" d="m1087.1,417.1c-11.49,120.44-32.01,220.42-46.52,330.49-2.07,15.68-4.69,32.54-15.79,43.8-14.96,15.16-40.78,14.89-62.08,14.87-30.16-.03-65.2-.8-95.26-8.36,35.05-23.85,98.87-5.96,128.63-36.14,12.57-12.75,17.03-31.18,20.98-48.64,22.54-99.75,48.09-199.78,70.05-296.02Z"/>
    <g id="Layer_16" data-name="Layer 16">
      <path class="cls-27" d="m849.52,777.38c6.12,13.42,23.37,23.31,43.22,24.78,19.85,1.48,41.47-5.52,52.98-18.31-33.74,8.67-71.61,5.73-96.2-6.47Z"/>
      <path class="cls-25" d="m856.06,783.99c11.02,8.19,25.08,13.07,39.69,13.77,14.61.7,29.69-2.78,42.13-10.58-14.59,6.52-25.67,5.28-40.03,4.78-12.19-.42-30.01-3-41.79-7.96Z"/>
    </g>
    <g id="Layer_15" data-name="Layer 15">
      <path class="cls-41" d="m813.7,720.81c-10.39,3.03-19.88,21.15-15.38,35.14,4.51,13.99,6.68,16.95,17.29,22.41,10.62,5.46,25.18,5.75,36.09,6.95,35.78,3.94,71.83,6.32,107.6,10.27,15.07,1.66,31.07,3.07,43.24-6.38s17.73-34.21,7.11-50.4c-8.99-13.71-23.82-13.35-36.41-14.13-58.03-3.6-133.58-11.42-159.55-3.86Z"/>
      <path class="cls-22" d="m855.59,731.79c-9.85-7.7-24.49-5.86-34.1,2.15-9.61,8-12.73,23.9-4.57,33.38,5.97,6.93,15.89,8.89,25.04,8.93,4.92.02,10.03-.44,14.29-2.89,7.48-4.31,10.54-13.93,9.57-22.5-.97-8.58-4.67-14.71-10.23-19.06Z"/>
      <path class="cls-22" d="m981.32,734.47c-13.04-3.27-28.09,1.27-35.54,12.75-7.45,11.48-4.95,29.52,6.5,36.88,6.29,4.04,14.09,4.57,21.37,3.63,6.5-.85,13.08-2.91,17.89-7.49,6.98-6.64,9-17.96,5.83-27.36s-10.86-17.1-16.04-18.4Z"/>
      <path class="cls-19" d="m849.64,738.77c8.76,1.86,15.12,11.38,13.48,20.19-1.64,8.81-10.99,15.41-19.84,14-8.85-1.41-15.69-10.59-14.51-19.47,1.18-8.88,10.34-16.96,20.86-14.72Z"/>
      <path class="cls-19" d="m980.29,751.01c8.76,1.86,15.12,11.38,13.48,20.19-1.64,8.81-10.99,15.41-19.84,14-8.85-1.41-15.69-10.59-14.51-19.47,1.18-8.88,10.34-16.96,20.86-14.72Z"/>
      <path class="cls-19" d="m880.32,743.19c-2.08,16.2-2.67,13.31-3.09,24.3-.1,2.75.06,6.67,1.54,8.99,2.58,4.05,9.45,4.51,14.19,5.27,4.86.78,10.05.81,14.94,1.43,4.89.62,9.58.72,13.48-2.28,5.16-3.97,6.5-11.07,7.46-17.52.74-4.92,1.47-9.94.65-14.84s-3.48-9.77-7.93-11.98c-6.17-3.06-11.36-2.64-18.24-2.99-3.77-.19-12.1.29-16.06.88s-6.79,7.58-6.94,8.75Z"/>
      <path class="cls-32" d="m886.4,745.93c-1.12,3.29-.93,5.64-1.07,7.48-.27,3.64-.53,7.27-.8,10.91-.15,2.05-.29,4.2.53,6.09,1.7,3.95,5.2,5.36,9.49,5.61,5.32.31,12.5,2.06,17.73,1.06,2.37-.45,4.35-1.42,5.81-3.34,1.14-1.51,1.6-5.54,1.82-7.41.54-4.58,1.07-9.15,1.61-13.73.36-3.06.61-6.5-1.34-8.89-1.81-2.21-4.91-2.76-7.75-3.07-4.47-.49-8.96-.74-13.45-.76-3.22-.01-6.61.14-9.34,1.83s-2.64,2.47-3.24,4.22Z"/>
    </g>
    <g id="Layer_17" data-name="Layer 17">
      <text/>
      <g>
        <path class="cls-21" d="m867.06,326.42c-.18-.6.34-1.2,1.08-1.21,1.41-.02,2.11-.03,3.52-.05.4,0,.69.27.74.5,2.59,9.14,3.95,13.75,6.82,23.07.12,0,.18,0,.31,0,6.13-9.22,9.12-13.87,14.98-23.23.14-.24.48-.52.92-.52,1.41,0,2.11,0,3.52,0,.74,0,1.05.62.65,1.23-6.7,10.66-13.62,21.19-20.73,31.58-.2.28-.56.51-.97.5-.21,0-.31,0-.52,0-.36,0-.68-.25-.79-.53-3.28-10.42-6.46-20.84-9.53-31.32Z"/>
        <path class="cls-21" d="m903.16,325.88c.07-.48.58-.9,1.07-.9,1.31,0,1.96,0,3.27,0,.49,0,.88.43.81.91-1.47,10.54-2.94,21.07-4.41,31.61-.07.48-.59.89-1.11.88-1.37-.04-2.05-.06-3.41-.09-.52-.01-.92-.45-.85-.93,1.54-10.49,3.08-20.99,4.62-31.48Z"/>
        <path class="cls-21" d="m916.44,325.94c.06-.48.51-.91,1.06-.91,1.31,0,1.96.01,3.27.03.49,0,.89.44.83.93-1.14,9.46-2.28,18.92-3.42,28.37,5.57.17,8.36.27,13.93.47.57.02.93.48.88.96-.11,1.07-.16,1.61-.27,2.68-.05.49-.51.91-1.08.89-7.36-.29-11.04-.43-18.4-.67-.57-.02-.93-.46-.87-.94,1.36-10.61,2.71-21.21,4.07-31.82Z"/>
        <path class="cls-21" d="m939.68,326.23c.05-.49.49-.92.98-.92,4.55.08,6.83.12,11.38.22,9.55.21,16.77,8.46,16.39,17.94-.37,9.07-10.07,17.48-19.12,16.66-4.75-.22-7.13-.33-11.88-.53-.52-.02-.89-.48-.84-.97,1.03-10.8,2.06-21.6,3.1-32.41Zm9.28,29.18c7.55.33,13.39-4.78,13.86-12.17.47-7.33-4.52-12.84-11.84-13.03-2.63-.07-3.94-.1-6.57-.16-.89,10.03-1.33,15.04-2.22,25.07,2.71.11,4.07.17,6.78.29Z"/>
        <path class="cls-21" d="m988.21,326.87c.11-.4.52-.74.91-.73.32.01.47.02.79.03.3.01.73.28.82.59,3.22,8.92,6.52,17.82,9.9,26.68.08,0,.12,0,.2.01,4.42-10.24,6.57-15.4,10.73-25.79.1-.31.5-.55.84-.53.32.02.47.02.79.04.4.02.79.4.89.82,2.02,11.8,4.12,23.58,6.28,35.35.16.74-.2,1.18-.92,1.13-1.34-.1-2.01-.15-3.35-.25-.46-.03-.88-.43-.98-.8-1.52-9.4-2.27-14.09-3.71-23.43-.05,0-.15,0-.15,0-3.66,9.33-5.54,13.96-9.4,23.16-.11.3-.42.54-.89.5-.37-.03-.56-.04-.93-.06-.41-.03-.77-.31-.87-.62-3.56-9.7-5.29-14.51-8.65-24.06-.05,0-.15,0-.2,0-1.72,9.04-2.59,13.55-4.39,22.55-.06.35-.54.68-.95.65-1.34-.08-2.01-.12-3.35-.21-.72-.04-1.07-.52-.93-1.22,2.56-11.25,5.07-22.51,7.51-33.79Z"/>
        <path class="cls-21" d="m1021.55,363.29c5.2-11.33,10.18-22.77,14.93-34.29.14-.31.58-.55.83-.53.2.01.3.02.49.03.25.01.7.31.86.63,5.44,12.38,10.99,24.7,16.65,36.98.34.72-.04,1.38-.82,1.31-1.3-.12-1.95-.18-3.24-.29-.62-.06-.99-.41-1.21-.91-1.39-3.04-2.08-4.55-3.44-7.57-6.68-.55-10.02-.82-16.7-1.32-.98,2.34-2.02,4.62-3.02,6.95-.15.35-.56.74-1.18.69-1.3-.1-1.95-.15-3.25-.26-.77-.06-1.19-.77-.89-1.43Zm22.95-9.36c-2.69-6.02-4.01-9.01-6.62-14.97-.1,0-.15,0-.25-.02-2.29,5.63-3.46,8.44-5.83,14.02,5.08.37,7.62.57,12.7.97Z"/>
        <path class="cls-21" d="m1057.24,331.27c-.03-.54.35-.99.84-.96,4.55.31,6.82.47,11.36.8,10.41,1.17,17.96,10.5,18.84,20.51.93,10.55-6.61,18.42-16.55,17.44-4.74-.47-7.1-.69-11.84-1.14-.51-.05-.95-.57-.98-1.11-.56-11.85-1.12-23.69-1.68-35.54Zm13.47,32.57c7.53.71,12.57-4.64,11.98-12.74-.59-8.04-6.33-14.34-13.63-14.89-2.62-.2-3.93-.3-6.56-.49.58,11,.87,16.49,1.45,27.49,2.7.25,4.05.38,6.76.63Z"/>
      </g>
      <g>
        <path class="cls-29" d="m885.28,392.5c-2.26.14-3.39.21-5.66.35-1.79.03-2.69.05-4.48.09-1.49.24-2.24.36-3.73.61-.38,1.76-.57,2.63-.95,4.39,2.67-.02,4.01-.03,6.69-.04,1.1,1.38,1.65,2.08,2.76,3.47-.26,2.18-.39,3.28-.65,5.46-2.33.05-3.49.08-5.82.14-1.5-.21-2.25-.31-3.75-.52-.36,1.73-.53,2.6-.89,4.34-.39,2.48-.58,3.72-.97,6.19-.18,1.88-.26,2.82-.44,4.7-2.99.03-4.48.05-7.47.09-.79-1.1-1.19-1.64-1.97-2.73-1.13-.68-1.7-1.02-2.83-1.7.38-2.66.57-3.99.94-6.64.36-3.8.55-5.7.91-9.5.24-2.61.36-3.92.6-6.53.7-2.31,1.05-3.47,1.75-5.79.58-1.66.87-2.5,1.45-4.16,1.98-.43,2.97-.65,4.95-1.08,2.86.06,4.29.09,7.15.16,2.24-.16,3.37-.25,5.61-.41,1.69-.19,2.53-.29,4.21-.48,1.41,1.25,2.11,1.87,3.53,3.13-.38,2.59-.58,3.88-.96,6.47Zm-6.75-4.51c-2.21.32-3.31.48-5.52.8-2.53.14-3.8.21-6.34.35-.76,3.38-1.14,5.06-1.9,8.44-.44,2.45-.66,3.67-1.1,6.12-.55,2.61-.83,3.92-1.38,6.52-.34,2.51-.51,3.76-.85,6.26.02,1.66.03,2.5.05,4.16,1.8-.05,2.7-.07,4.49-.12.34-2.06.5-3.09.84-5.15.26-2,.39-3,.65-5s.39-3,.65-5c1.95.12,2.92.18,4.87.3,2.02.08,3.03.13,5.05.21.09-.71.13-1.06.21-1.77.13-.71.19-1.06.32-1.77-2.3.06-3.44.1-5.74.16-1.66-.1-2.49-.15-4.15-.24.09-1.73.14-2.6.24-4.33.38-2.1.58-3.16.96-5.26,1.68-.35,2.52-.52,4.2-.87,1.67.06,2.5.1,4.17.17,2.37-.12,3.55-.19,5.92-.31.28-1.69.43-2.53.71-4.22-2.54.21-3.81.32-6.35.54Z"/>
        <path class="cls-29" d="m904.45,422.31c-5.76-.09-13.46-3.74-14.62-6.39-2.21-4.87-2.37-8.74-1.78-14.07.5-4.5,2.57-10.38,5.51-13.84,3.36-3.96,6.22-4.98,11.09-5.11,12.09-.32,13.85,12.6,12.85,21.6-.68,6.13-4.32,17.95-13.04,17.81Zm1.77-34.44c-8.69,0-12.54,7.41-13.73,16.21-1.16,8.53.1,16.82,11.23,17.1,9.11.23,12.3-10.97,12.87-17.71.75-8.93.23-15.59-10.36-15.59Zm-4.52,29.8c-6.52-.14-6.72-7.36-6.23-12.05.53-5.05,1.5-14.49,8.75-14.48,5.83,0,8.93,2.54,8.4,8.51-.53,6.02-2.06,18.2-10.92,18.01Zm2.04-25.57c-5.9.15-6.61,9.64-7.02,13.64-.28,2.74-.71,10.12,3.41,10.2,5.23.1,6.94-12.25,7.28-15.91.26-2.81-.07-8.02-3.68-7.93Z"/>
        <path class="cls-29" d="m941.67,424.02c-2.14-.55-3.21-.82-5.35-1.37-.84-4.34-2.71-8.86-4.53-12.82-.19,1.84-.48,3.73-.61,5.57-.16,2.33.05,4.88.05,7.22-2.68.18-4.02.27-6.71.46-1.62-1.18-2.42-1.77-4.03-2.94.46-6.44,1.72-12.9,2.25-19.26.26-3.1.05-6.18.3-9.25.21-2.69.32-4.03.53-6.71,3.44-1.7,9.21-3.02,12.9-2.45,6.21,1.74,9.62,8.36,9.25,14.65-.02.33-1.51,4.23-2.42,5.52-1.43,1.36-2.14,2.04-3.57,3.39,2.34,4.87,4.01,10.34,5.44,15.56-1.4.97-2.1,1.46-3.5,2.43Zm-3.63-18.3c2.34-1.13,5.14-4,5.93-5.96.76-1.85,1.29-5.03.21-7.98-.98-2.68-3.13-3.87-3.13-3.87-1.5-.35-3.56-1.19-5.03-1.21-2.98-.04-6.2.15-9.02,1.58-.63,11.23-1.34,22.4-1.66,33.64,1.84-.07,2.76-.1,4.6-.16,0-1.68-.15-3.42-.03-5.1.21-2.87.58-5.73.89-8.59,1.44-.07,2.17-.11,3.61-.17,3.25,2.7,6.31,10.55,7.34,14.7.91-.53,1.36-.8,2.26-1.33-1.41-5.43-3.43-10.64-5.98-15.55Zm-2.58-2.73c-1.75.52-2.63.78-4.39,1.31.05-4.6.38-9.25.17-13.85,1.49-.41,2.23-.62,3.72-1.03,1.51.45,2.27.68,3.79,1.14.48.93,2.33,3.58,2.28,4.51-.2,3.1-2.3,6.92-5.57,7.93Zm2.5-11.15c-.95-.54-1.42-.81-2.36-1.34-1.15.27-1.73.4-2.88.66-.09,3.75-.13,5.62-.22,9.37,2.08-.71,3.86-1.82,4.61-3.98.4-1.08.86-2.21.93-3.3.03-.49-.04-.98-.07-1.42Z"/>
        <path class="cls-29" d="m982.93,421.8c-1.5,2-9.42,3.06-11.99,2.92-1.01-.05-1.95-.27-2.95-.44-1.84-1.59-2.76-2.38-4.59-3.96.3-4.43.99-8.79,1.18-13.22.2-4.82-.47-9.57-.26-14.39.13-2.94.8-5.86,1.35-8.73,1.31-.25,2.9-.82,4.2-.79,1.78.04,3.51.2,5.29.3,4.85,2.19,7.77,8.31,7.62,13.71-.03,1.12-2.4,5.24-3.14,6.22,1.78,1.03,4.5,4.1,5.12,6.08.39,1.25.47,3.07.44,4.42-.04,1.46-1.45,6.8-2.26,7.88Zm-.16-14.31c-1.56-1.48-3.22-2.96-5.29-3.66,1.13-.96,3.93-4.61,3.97-6.07.09-2.98-.53-6.09-1.92-8.66-2.1-.68-4.04-1.08-6.26-1.14-1.19-.03-3.18-.07-3.49.29-.78.91-.6,5.55-.71,8.33-.34,8.79-.64,17.68-.03,26.53,1.22.23,2.44.58,3.67.64,2.85.15,7.19-.72,8.95-2.2,1.71-1.44,2.52-6.79,2.59-9.55,0-.34-1.28-3.84-1.48-4.52Zm-4.45-11.2c-.25,1.06-1.2,2.93-2.03,3.62-1.13.94-3.91,1.92-3.91,1.92-.15-3.02-.23-4.53-.38-7.55.04-1.11-.03-2.29-.15-3.41,1.49.22,2.24.34,3.74.56.89.7,1.34,1.05,2.23,1.75.3.74.6,1.81.57,2.6,0,.17-.07.33-.07.5Zm-5.21-3.98c.14,2.1.21,3.16.36,5.26.66-1.54,1.21-3.26,1.48-4.92-.74-.14-1.1-.2-1.84-.34Zm-.18,28.22c-.41-2.54-.66-5.01-.57-7.57.07-1.83.1-2.74.16-4.57.61-.14,2.62-.67,3.11-.65,1.71.08,4.72.72,5.73,2.34.37.64.51,3.4.49,4.19-.11,3.82-5.7,6.38-8.93,6.27Zm3.94-11.56c-1.22.19-1.83.29-3.06.48-.09.95-.23,1.89-.26,2.78-.07,2.12-.04,4.19.22,6.33.58-.64,4.25-5.95,4.27-6.57.03-1.06-.49-2.16-1.17-3.03Z"/>
        <path class="cls-29" d="m1016.21,393.04c1.84,4.53,2.17,10.21,2.17,15.46,0,6.81-2.85,19.28-11.49,18.73-2.44-.15-5.3-1-7.9-2.19-1.15,2.07-1.72,3.1-2.88,5.16-1.98-.91-2.97-1.36-4.94-2.26-1.1-2.2-1.64-3.3-2.73-5.49,1.04-1.77,1.56-2.66,2.6-4.43-1.96-4.59-2.36-8.5-2.24-13.64.11-4.86,1.66-11.14,4.3-14.76,2.95-4.04,5.67-5.25,10.65-5.05,1.89.07,3.51.37,4.97.89.77-1.71,1.15-2.57,1.92-4.28,2.03.08,3.04.12,5.06.2,1.27,2.45,1.9,3.68,3.18,6.14-1.06,2.21-1.59,3.32-2.66,5.52Zm-1.9.42c1.03-2.07,1.54-3.1,2.56-5.18-1.41-.46-2.11-.69-3.52-1.14-.76,1.65-1.15,2.47-1.92,4.11-1.46-.7-3.36-1.13-5.69-1.23-8.68-.38-11.91,7.49-12.33,16.96-.23,5.13.3,10.22,2.68,13.89.06,0-3.46,6.08-3.46,6.08,1.17.62,1.76.93,2.94,1.55,1.16-2.06,1.73-3.09,2.88-5.16,1.87,1.43,4.32,2.39,7.61,2.62,9.09.62,11.33-11.36,11.33-18.63,0-5.82-.38-10.81-3.09-13.88Zm-10.54,28.64c-6.51-.42-7.32-8.25-7.24-13.31.09-5.45.26-15.63,7.5-15.3,5.82.26,9.13,3.13,9.1,9.57-.03,6.5-.52,19.61-9.36,19.04Zm-.13-27.6c-5.87-.09-5.77,10.15-5.84,14.47-.05,2.96.16,10.93,4.27,11.19,5.22.33,5.88-12.97,5.91-16.92.02-3.03-.75-8.68-4.34-8.74Z"/>
        <path class="cls-29" d="m1044.05,430.6c-2.17-.68-3.26-1.02-5.43-1.69-1.18-4.72-3.41-9.68-5.55-14.03-.03,1.98-.18,4.01-.16,5.99.03,2.51.45,5.28.64,7.8-2.65.09-3.98.13-6.63.23-1.7-1.34-2.55-2.01-4.25-3.34-.08-6.95.64-13.88.65-20.74,0-3.35-.46-6.69-.47-9.99,0-2.9-.01-4.34-.02-7.24,3.29-1.69,8.95-2.87,12.68-2.09,6.34,2.14,10.28,9.44,10.41,16.22,0,.35-1.17,4.51-1.96,5.86-1.31,1.41-1.97,2.11-3.28,3.52,2.72,5.35,4.83,11.34,6.67,17.02-1.31.99-1.97,1.49-3.29,2.48Zm-5.09-19.92c2.24-1.13,4.8-4.17,5.43-6.19.63-2,.9-5.33-.44-8.61-1.22-3-3.44-4.32-3.44-4.32-1.52-.44-3.65-1.44-5.11-1.52-2.98-.17-6.17-.1-8.87,1.32.3,12.12.51,24.19,1.12,36.3,1.83,0,2.74,0,4.57.01-.13-1.82-.43-3.7-.44-5.51-.03-3.09.1-6.17.18-9.25,1.43-.02,2.15-.02,3.58-.04,3.45,3.05,7.13,11.66,8.5,16.18.86-.54,1.29-.81,2.14-1.35-1.84-5.92-4.27-11.63-7.21-17.05Zm-2.79-3.06c-1.7.49-2.56.74-4.27,1.23-.32-4.97-.37-9.99-.96-14.97,1.45-.38,2.18-.58,3.63-.96,1.55.56,2.32.83,3.87,1.39.56,1.03,2.62,3.97,2.63,4.97.06,3.35-1.74,7.38-4.9,8.34Zm1.58-11.94c-.99-.62-1.48-.93-2.47-1.55-1.13.24-1.69.36-2.82.6.22,4.05.33,6.07.55,10.12,2.02-.69,3.7-1.8,4.27-4.11.31-1.15.67-2.36.66-3.53,0-.53-.12-1.06-.18-1.53Z"/>
        <path class="cls-29" d="m1079.56,404.66c-.19,6.07-.29,9.1-.49,15.17-.01,5.38-.02,8.07-.04,13.45-2.17-.34-3.25-.51-5.41-.84-2.04-1.73-3.06-2.59-5.09-4.31-.52-.91-.78-1.36-1.3-2.27-1.85-3.65-2.77-5.47-4.6-9.09-1.4-2.4-2.09-3.6-3.48-5.98-.11,7.54-.16,11.3-.28,18.83-1.98-.06-2.97-.09-4.94-.15-1.66-1.42-2.49-2.13-4.14-3.55.05-5.84.07-8.76.11-14.61.2-4.82.29-7.23.49-12.06-.11-4.51-.16-6.77-.27-11.29,3.61.15,5.41.22,9.02.38.99,2.06,1.48,3.09,2.48,5.15,3.71,6.39,5.58,9.61,9.36,16.09-.02-8.11-.03-12.17-.06-20.29,2.02-.2,3.03-.29,5.04-.49,1.42,2.17,2.14,3.25,3.57,5.43,0,4.17.01,6.25.02,10.41Zm-4.04-9.69c-.22,4.64-.33,6.96-.56,11.59.02,3.29.04,4.93.06,8.22-.13,1.72-.19,2.57-.32,4.29-3.51-6.52-5.25-9.76-8.7-16.2-2.21-3.58-3.31-5.36-5.5-8.91-2.36.05-3.54.08-5.9.14,0,6.77,0,10.15.01,16.92.03,6.91.04,10.36.06,17.27,1.22-.03,1.83-.05,3.05-.08-.04-4.67-.06-7.01-.11-11.68.1-4.33.15-6.49.24-10.83.31-2.23.46-3.35.77-5.58,2.42,4.54,3.63,6.82,6.09,11.4,1.69,3.28,2.53,4.93,4.24,8.23,2.08,4.62,3.13,6.95,5.24,11.61,1.63.23,2.44.35,4.07.58-.05-3.77-.07-5.66-.12-9.44.09-6.33.13-9.5.21-15.84.11-4.53.17-6.8.27-11.34-1.24-.14-1.86-.21-3.1-.35Z"/>
      </g>
    </g>
  </g>
  <g id="Layer_19" data-name="Layer 19">
    <path class="cls-16" d="m750.83,805.6c-67.72-59.61-98.54-158.09-76.89-245.68,14.74-59.61,51.37-113.04,59.25-173.94,8.68-67.16-21.8-137.98-78.39-176.5,59.87,61.13,80.55,157.61,50.98,237.91-13.74,37.3-37.07,70.57-49.86,108.21-15.45,45.46-14.47,96.31,2.71,141.15s50.46,83.31,92.2,108.85Z"/>
    <path class="cls-16" d="m610.02,679.54c-34.37-85.78-12.56-191.15,53.03-256.25,44.73-44.39,104.77-68.95,161.46-96.48,56.69-27.53,114.16-61.62,145.01-116.57,12.5-22.27,23.15-50,47.67-57.14,14.85-4.33,30.61.54,46.01,2.02,40.55,3.89,82.42-18.47,101.73-54.34-7.58,28.58-39,43.44-67.85,49.92-28.85,6.48-60.32,9.11-83.27,27.75-19.72,16.01-29.41,40.93-43.7,61.93-28.13,41.32-73.9,66.95-119.78,86.78-45.88,19.83-94.1,35.67-135.3,63.98-46.46,31.92-82.12,79.27-99.96,132.74s-17.77,112.74-5.03,155.67Z"/>
    <path class="cls-16" d="m676.74,925.95c32.48-58.59,98.92-96.67,165.89-95.08,39.66.94,77.78,14.55,116.69,22.26,38.92,7.71,82.05,8.77,115.29-12.88,43.09-28.07,56.25-84.45,62.54-135.5,6.29-51.04,11.07-106.57,45.74-144.56,36.85-40.38,96.67-48.94,143.04-77.89,56.34-35.17,90.46-103.1,85.04-169.3,13.64,43.13,3.28,91.76-21.83,129.38-25.11,37.62-63.68,64.9-105.43,82.31-27.28,11.37-56.95,19.34-79.16,38.85-28.12,24.69-39.13,63.47-44.2,100.55-5.06,37.08-5.69,75.33-18.83,110.38-24.28,64.8-93.75,109.62-162.8,105.04-46.76-3.11-90.3-26.21-136.97-30.41-64.42-5.8-130.77,28.33-165.02,76.86Z"/>
    <path class="cls-16" d="m1400.56,599.11c-49.88,46.8-116.28,75.63-184.53,80.12-19.71,1.3-40.28.8-58.13,9.28-17.84,8.48-31.63,29.83-23.86,48,6.76-25.92,34.14-41.37,60.54-45.9,26.4-4.53,53.58-1.14,80.15-4.53,53.92-6.89,103.03-43.7,125.82-86.97Z"/>
    <path class="cls-16" d="m833.16,325.55c16.99-5.22,21.98-27.83,17.12-44.94-4.86-17.1-16.21-31.78-21.24-48.83-5.93-20.1-2.53-42.03,5.33-61.46,7.87-19.42,19.95-36.8,31.94-53.99-15.2,28.54-30.87,59.46-26.84,91.54,2.75,21.9,14.46,41.57,20.48,62.8,6.02,21.23,4.48,47.72-26.79,54.87Z"/>
    <path class="cls-16" d="m1224.2,541.7c13.59-8.89,16.85-27.99,13.04-43.77s-13.07-29.61-19.94-44.32c-23.29-49.83-17.39-112.08,14.85-156.65-12.81,46.16-25.39,96.63-6.54,140.67,6.39,14.93,16.25,28.57,19.53,44.48,5.31,25.78-7.56,51.45-20.93,59.59Z"/>
  </g>
  <g id="Layer_25" data-name="Layer 25">
    <path class="cls-11" d="m727.4,308.03c-5.25-12.96-2.11-28.09,4.85-40.21s17.35-21.84,27.52-31.42c10.17-9.59,20.45-19.46,27.1-31.75-4.11,21.58-8.33,43.5-18.32,63.07s-26.7,36.83-41.15,40.32Z"/>
    <path class="cls-11" d="m653.61,441.32c-6.7-11.79-7.65-25.84-9.67-39.26s-5.83-27.62-16.26-36.29c-6.65,15.48-11.04,31.93-12.99,48.66-1.07,9.17-.93,19.72,5.83,26.02,4.64,4.32,11.51,5.54,17.79,4.7s12.15-3.51,15.3-3.83Z"/>
    <path class="cls-11" d="m683.08,513.87c13.77-33.39,29.64-69.24,61.22-86.76,11.61-6.44,24.63-9.92,36.55-15.77s23.29-14.97,26.91-27.75c.2,34.35-13.81,68.56-38.03,92.91s-58.36,38.54-86.65,37.38Z"/>
    <path class="cls-11" d="m653.54,639.35c-20.48-7.52-35.06-25.35-49.37-41.81-14.32-16.46-30.94-33.17-52.43-36.93-6.17-1.08-13.88-.25-16.65,5.37-2.27,4.61-.04,10.06,2.24,14.66,11.54,23.29,25.04,46.22,44.59,63.34,19.55,17.12,46.13,27.83,71.71,23.19,2.82-.51,5.79-1.3,7.71-3.43,4.1-4.55,1-11.9-3.15-16.4s-9.57-8.76-4.64-8Z"/>
    <path class="cls-11" d="m898.54,291.96c5.87-10.55,6.01-23.35,4.29-35.3-1.72-11.95-5.13-23.66-5.83-35.71-1.12-19.28,5.03-38.91,16.97-54.1,3.13-3.98,7.22-7.95,12.29-8.04,5.78-.11,10.54,5.16,11.85,10.78s0,11.5-1.4,17.11c-8.93,36.08-20.9,71.4-38.17,105.26Z"/>
    <path class="cls-11" d="m1148.79,692.13c8.42-42.13-3.33-87.83-31.03-120.66-1.37-1.62-3.09-3.36-5.21-3.23-3.02.18-4.4,3.8-4.92,6.78-6.56,37.55,9.4,75.21,27.62,108.69,3.03,5.56,6.19,11.17,10.77,15.54s10.84,7.4,2.78-7.12Z"/>
    <path class="cls-11" d="m1279.5,518.57c32.54-22.83,74.73-31.4,113.59-23.07,3.15.67,6.4,1.51,8.86,3.59s3.88,5.74,2.43,8.62c-.87,1.73-2.58,2.87-4.23,3.89-40.94,25.38-94.85,28.39-120.66,6.97Z"/>
    <path class="cls-11" d="m1217.15,421.24c-8.3-5.5-12.11-15.58-15.06-25.09-2.95-9.51-5.87-19.67-13.26-26.34-7.39-6.67-20.95-7.53-26.13.98-3.06,5.02-2.21,11.67.61,16.82,2.83,5.16,7.34,9.14,11.75,13.02,15.33,13.44,30.65,26.89,42.09,20.61Z"/>
    <path class="cls-11" d="m831.32,834.1c-4.88,18.95,3.72,39.5,17.72,53.18,14,13.68,32.64,21.54,51.31,27.39,4.18,1.31,8.5,2.55,12.87,2.25s8.87-2.42,10.85-6.33c1.94-3.82,1.09-8.58-1.12-12.25s-5.61-6.44-9.01-9.04c-22.94-17.6-48.98-31.15-76.56-39.82-4.17-1.31-8.45-2.55-12.05-5.02s-6.47-6.48,6-10.36Z"/>
    <path class="cls-11" d="m1041.78,857.85c6.24-3.39,10.05-10.11,11.87-16.97,1.82-6.86,1.96-14.04,2.71-21.09,3.49-32.74,21.09-63.74,47.42-83.5-1.61,52.59-29.15,103.76-62,121.56Z"/>
    <path class="cls-11" d="m1323.85,486.82c-10.05-14.98-9.98-34.74-5.55-52.23,4.43-17.49,12.75-33.74,18.29-50.9,5.54-17.17,8.17-36.33,1.16-52.95,16.78,11.04,24.59,32.21,24.67,52.29.08,20.08-6.39,39.54-12.79,58.57-3.81,11.35-7.63,22.69-11.44,34.04-2.07,6.16-4.22,12.46-8.32,17.5-4.1,5.04-10.64,8.61-6.02-6.31Z"/>
    <path class="cls-11" d="m1279.68,676.94c9.9-10.46,26.43-12.03,40.25-8.01,13.82,4.02,25.75,12.65,37.83,20.49s25.19,15.18,39.55,16.09c-14.91,5.3-30.78,8.46-46.56,7.37s-31.52-6.64-43.35-17.16c-7-6.23-12.52-14.03-19.86-19.86-5.45-4.32-11.82-7.47-7.86,1.08Z"/>
    <path class="cls-11" d="m702.19,747.26c-17.72-.95-32.48,15.02-37.46,32.05s-2.9,35.19-3.02,52.93c-.12,17.74-3.16,36.9-15.76,49.39,27.72-8.04,46.85-34.69,54.09-62.63,7.23-27.94,4.64-57.37,2.15-71.74Z"/>
    <path class="cls-11" d="m1017.66,170.25c12.88-4.65,27.43-1.2,39.57,5.12s22.65,15.34,34.14,22.78c11.49,7.44,24.69,13.46,38.35,12.6-12.4,11.79-32.41,11.95-48.21,5.39-15.8-6.56-28.58-18.57-41.66-29.61-13.07-11.04-27.53-21.66-22.2-16.28Z"/>
    <path class="cls-11" d="m673.42,690.85c.21-12.9,5.32-25.66,14.06-35.14,9.52-10.33,22.69-16.46,33.61-25.3,10.92-8.84,20.06-22.68,16.47-36.27.79,18.13,1.1,37.92-9.91,52.35-8.08,10.59-21.14,16.56-29.04,27.29-3.92,5.33-6.37,11.58-9.63,17.34s-7.69,11.29-13.89,13.62c-6.2,2.33-14.38.3-1.66-13.9Z"/>
  </g>
  <g id="Layer_28" data-name="Layer 28">
    <path class="cls-1" d="m902.02,284.54c9-19.49,8.72-41.75,10.21-63.16s5.7-44.28,21.01-59.33c-10.83,27.64-18.25,56.61-22.04,86.05-1.59,12.4-3.55,26.62-9.18,36.44Z"/>
    <path class="cls-1" d="m724.71,310.11c.65-17.41,12.96-31.93,25-44.52,12.04-12.59,25.11-25.97,27.95-43.16-.18,17.37-12.12,32.18-24.08,44.78-11.95,12.6-25.13,25.58-28.88,42.89Z"/>
    <path class="cls-1" d="m1018.45,173c16.67-.96,31.72,9.29,44.9,19.55,13.18,10.26,27.07,21.46,43.71,22.94-11.75,2.11-23.79-2.52-33.72-9.15-9.93-6.62-18.39-15.22-27.92-22.41s-20.72-13.12-26.96-10.93Z"/>
    <path class="cls-1" d="m1208.87,410.06c-8.23-3.82-16.09-8.63-22.52-15.03-6.43-6.4-11.36-14.49-13.09-23.4,6.38,9.55,13.9,18.33,22.35,26.12,3.73,3.44,7.8,6.91,13.26,12.31Z"/>
    <path class="cls-1" d="m1333.4,483.63c-9.21-12.6-10.3-29.6-7.25-44.91,3.05-15.31,9.75-29.6,15.01-44.29s9.12-30.52,6.18-45.84c6.93,13.88,5.97,30.48,2.03,45.49-3.94,15.01-10.64,29.16-14.96,44.06-4.32,14.9-6.13,31.3-1.01,45.5Z"/>
    <path class="cls-1" d="m1305.44,520.21c8.53-6.34,19.9-7.4,30.5-6.63,10.6.78,21.12,3.16,31.74,2.78,10.62-.37,21.88-4.09,27.95-12.82-11.19,12.7-30,14.95-46.92,14.57-16.92-.37-34.69-2.35-43.27,2.09Z"/>
    <path class="cls-1" d="m1282.46,675.62c6.78-3.81,15.42-2.39,22.36,1.12,6.94,3.51,12.75,8.85,19.18,13.21,14.04,9.54,31.22,14.37,48.18,13.52-17.4.89-36.02,1.48-50.87-7.63-15.35-9.42-24.82-28.24-38.84-20.22Z"/>
    <path class="cls-1" d="m1140.5,692.29c5.55-13.43,2.56-28.91-2.81-42.41-5.37-13.5-13.01-26.12-17.05-40.08-2.81-9.7-3.81-19.92-2.93-29.99,7.35,25.27,14.71,50.54,22.06,75.8,3.42,11.76,6.55,25.5.73,36.67Z"/>
    <path class="cls-1" d="m1045.86,857.08c9.72-13.43,19.6-27.14,24.7-42.92,6.68-20.67,5.42-45.13,20.02-61.22-9.12,35.54-18.82,72.29-44.72,104.14Z"/>
    <path class="cls-1" d="m830.6,841.72c10.87,34.09,42.99,60.37,78.56,64.29-35.27-12.9-65.17-39.85-78.56-64.29Z"/>
    <path class="cls-1" d="m688.84,504.33c8.34-24.03,29.63-41.02,51.09-54.69,21.45-13.67,44.63-25.85,60.82-45.47-10.34,24.48-34.92,39.34-58.1,52.33-23.18,12.99-47.94,27.26-53.81,47.82Z"/>
    <path class="cls-1" d="m648.15,436.88c-10.17-.63-18.02-10.08-20.26-20.01s-.14-20.28,1.96-30.24c-1.75,20.71,6.47,42.04,18.3,50.26Z"/>
    <path class="cls-1" d="m650.9,671.53c-21.05-13.04-42.28-26.2-60.17-43.32-17.89-17.12-32.44-38.71-36.9-63.07,3.87,24.71,22,44.67,41.15,60.76s40.48,30.31,55.92,45.63Z"/>
    <path class="cls-1" d="m679.71,727.07c-.99,23.34,3.21,46.6,3.64,69.96.43,23.36-3.49,48.08-18.34,66.11,14.93-17,23.75-39.26,24.52-61.88.77-22.62-6.52-45.42-9.82-74.19Z"/>
  </g>
  <g id="Layer_30" data-name="Layer 30">
    <path class="cls-33" d="m608.67,471.55c1.03-6.77,3.5-14.32,9.79-17.05,8.43-3.67,17.43,3.53,23.41,10.52,18.01,21.05,31.95,46.14,36.81,73.41,1.02,5.71,1.62,11.7-.17,17.22s-6.52,10.5-12.31,10.81c-27.46,1.48-63.61-54.68-57.52-94.91Z"/>
    <path class="cls-33" d="m1161.9,479.79c-12.17-34.39,2.83-67.49,24.17-96.85,5.69-7.83,15.11-15.76,24-11.91,7.02,3.04,9.3,11.8,9.93,19.43,2.48,30.03-7.43,60.9-26.94,83.87-4.59,5.41-10.14,10.63-17.12,11.9s-12.41-1.82-14.04-6.42Z"/>
    <path class="cls-33" d="m1158.04,911.1c-31.89-6.37-52.92-28.67-67.21-59.25-3.81-8.16-6.08-19.71.86-26.22,5.49-5.15,13.51-3.81,19.9-1.43,25.17,9.39,45.63,30.26,55.59,56.72,2.34,6.23,4.13,13.25,2.11,20.02-2.02,6.78-10.48,10.32-11.25,10.16Z"/>
  </g>
  <g id="Layer_32" data-name="Layer 32">
    <path class="cls-38" d="m1214.94,400.05c1.14,26.58-16.08,56.87-36.68,74.8-1.88,1.63-3.88,3.26-4.97,5.45-1.09,2.19-2.54,3.66-.58,5.21,1.8,1.42,5.77.94,8.05.45,13.28-2.9,24.22-11.16,30.1-22.89,5.88-11.72,9.32-30.98,12.04-43.72,2.39-11.17-.88-18.17-7.96-19.31Z"/>
    <path class="cls-38" d="m1137.5,829.32c11.06,10.57,22.36,21.46,28.91,35.28s9.33,29.04.03,41.19c3.25-19.42-7.44-37.96-23.57-49.25-3.68-2.58-7.69-4.68-11.24-7.42s-6.72-6.3-7.86-10.64.19-9.54,3.99-11.95c3.8-2.4,9.84-.72,9.75,2.8Z"/>
    <path class="cls-38" d="m641.16,474.28c23.02,23.49,33.15,58.89,26.06,91.01,5.72-.52,10.27-5.47,12.06-10.93s1.37-11.37.81-17.09c-1.35-13.86-3.46-27.94-9.76-40.36-6.3-12.42-17.48-23.06-29.18-22.63Z"/>
  </g>
  <g id="Layer_31" data-name="Layer 31">
    <path class="cls-18" d="m610.53,427.72c-15.73,3.53-29.77,14.01-37.63,28.08-7.86,14.07-9.42,31.52-4.18,46.77,3.37,9.81,11.03,19.58,21.39,19.9,9.47.29,17.26-7.36,22.54-15.23,5.27-7.88,9.62-16.87,17.52-22.11,8.82-5.84,20.11-5.74,30.49-7.74s21.79-8.13,22.98-18.64c.86-7.58-4.05-14.63-9.58-19.88-20.33-19.29-53.05-24.07-63.53-11.15Z"/>
    <path class="cls-18" d="m1104.16,789.01c-12.6,3.22-23.85,12.79-30.15,25.64-6.3,12.85-7.55,28.78-3.35,42.7,2.7,8.95,8.83,17.88,17.14,18.17,7.59.27,13.83-6.72,18.06-13.91,4.22-7.19,7.71-15.41,14.04-20.19,7.06-5.33,16.11-5.24,24.43-7.07s17.45-7.42,18.41-17.02c.69-6.92-3.24-13.35-7.68-18.15-16.29-17.61-42.5-21.98-50.9-10.18Z"/>
    <path class="cls-18" d="m1251.16,374.08c-4.32-16.41-25.09-25.75-42.79-28.39-17.7-2.64-36.67,5.2-46.61,19.26-4.44,6.28-7.17,13.88-6.33,21.39.84,7.51,5.66,14.81,13.02,17.78,11.21,4.53,24.96-1.51,36.05,3.29,12.22,5.29,18.38,22.46,31.78,21.55,11.31-.77,20.61-14.61,22.68-25.13,2.22-11.27-4.45-17.07-7.79-29.75Z"/>
    <path class="cls-37" d="m605.82,435.68c-18.11,11.7-28.6,34.2-25.92,55.59.42,3.33,1.18,6.75,3.2,9.44s5.58,4.45,8.8,3.5c3.5-1.03,5.51-4.87,5.81-8.51s-.67-7.25-1.12-10.87c-1.33-10.57,2.01-21.65,8.96-29.73,3.37-3.93,7.73-7.5,8.77-12.57s-3.4-10.13-8.49-6.84Z"/>
    <path class="cls-36" d="m1095.65,802.51c-6.76,6.83-13.67,13.87-17.53,22.68-3.85,8.81-4.02,19.9,2.11,27.3,2.4,2.9,6.35,5.18,9.85,3.8,4-1.57,5.02-6.88,4.17-11.09s-2.93-8.23-2.85-12.52c.1-4.71,2.78-8.92,5.37-12.85,2.59-3.93,5.27-8.14,5.36-12.85s-2.22-8.78-6.5-4.46Z"/>
    <path class="cls-35" d="m1203.61,353.3c-5.57-1.91-12.42-1.14-17.83.98s-9.66,5.41-13.69,8.7c-2.37,1.93-4.76,3.97-5.73,6.42s-.12,5.44,2.93,6.83c4.39,2,10.28-.26,13.71-3.03,3.44-2.77,6.27-6.26,11.21-7.5,6.57-1.66,15.81.9,19.71-3.14,2.44-2.53.51-6.19-2.98-8.03-3.49-1.84-8.02-2.32-7.33-1.24Z"/>
  </g>
  <g id="Layer_36" data-name="Layer 36">
    <path class="cls-20" d="m1287.52,487.88c1.96-8.1,3.91-16.21,5.87-24.31-14.3,5.33-18.37,16.14-15.09,25.15,1.53.47,8.41-.67,9.32-1.91-1.31,1.85-4.48,1.61-6.26.15-1.78-1.46-2.57-3.67-3.45-5.73-4.01-9.39-11.42-17.48-20.71-22.63,3.47,8.15,7,16.39,12.45,23.53,1.47,1.93.79,5.51,3.01,6.66,2.22,1.15,7.46-.27,9.6-1.55-6.22,2.24-9.24-4.58-15.23-7.32s-16.85-1.47-22.91,1.13c8.68,2.04,16.7,6.45,22.83,12.55,2.76-2.09,1.02-3.07,3.77-5.16-2.59,4.22-1.73,1.4-6.93,1.35-5.2-.05-4.55-2.6-9.74-2.84s-18.72,5.49-21.83,9.39c10.93-1.63,22.17-1.36,33,.79,1.56-4.6,6.03-8.21,22.31-9.25Z"/>
  </g>
  <g id="Layer_33" data-name="Layer 33">
    <path class="cls-34" d="m1301.64,479.02c4.59-5.88,14.43-6.83,20.11-1.94,5.67,4.89,5.98,14.58.62,19.8,8.56-2.57,18.72,3.35,20.49,11.96,1.77,8.6-5.24,17.93-14.14,18.82,9.2,1.94,17.78,9.13,18.58,18.32s-8.85,18.5-17.77,15.57c7.78,4.2,8.56,16.81,1.35,21.9-7.21,5.09-19.15.37-20.75-8.2-1.92,6.12-9.44,9.9-15.62,7.85-6.18-2.05-9.82-9.54-7.55-15.54-5.24,5.23-14.43,6.04-20.54,1.81-6.11-4.23-8.41-12.99-5.14-19.58-6.8-1.16-12.66-6.49-14.37-13.04-1.71-6.55.82-13.98,6.21-18.21-5.37-3.89-7.33-11.68-4.44-17.58,2.89-5.9,10.33-9.25,16.78-7.57-2.68-2.26-2.19-6.74.15-9.34,2.34-2.6,5.9-3.75,9.32-4.6,10.28-2.56,20.98-3.48,26.73-.44Z"/>
  </g>
  <g id="Layer_34" data-name="Layer 34">
    <path class="cls-4" d="m1268.93,526.2c3.21,4.75,5.4,11.04,2.41,15.92-2.92,4.76-10.55,5.93-15.02,2.44-4.47-3.48-4.91-10.65-1.07-14.76,3.84-4.11,11.12-4.58,13.67-3.6Z"/>
    <path class="cls-4" d="m1281.29,544.69c5.41,1.65,8.45,7.82,7.29,13.14s-5.77,9.55-11.08,11.49c-2.77,1.01-6.05,1.44-8.59-.02-1.75-1.01-2.88-2.78-3.57-4.62-2.04-5.49-.25-12.08,4.31-15.93,4.57-3.85,11.63-4.72,11.63-4.06Z"/>
    <path class="cls-4" d="m1301.37,557.98c4.65.39,7.69,5.26,7.7,9.72,0,4.24-2.23,8.58-6.13,10.6-3.9,2.02-9.36,1.19-11.93-2.27-2.7-3.64-1.62-8.84.96-12.57,3.08-4.46,9.02-7.74,9.4-5.48Z"/>
    <path class="cls-4" d="m1320.82,562.18c3.85,2.28,7.87,4.73,10.07,8.52,2.2,3.79,1.81,9.33-2.05,11.61-3.47,2.04-8.07.67-11.41-1.57-1.78-1.19-3.44-2.69-4.19-4.63-1.16-3.03.22-6.52,2.56-8.86s5.46-3.76,5.02-5.06Z"/>
    <path class="cls-4" d="m1325.24,531.16c3.86,1.47,7.68,3.15,10.9,5.65,3.22,2.5,5.82,5.92,6.56,9.82s-.64,8.28-3.98,10.63c-2.56,1.8-5.89,2.25-9.06,2.25-3.54,0-7.24-.58-10.05-2.63-3.24-2.36-4.77-6.28-5.62-10.08-.63-2.81-.94-5.86.39-8.43,1.33-2.58,4.13-4.25,7.05-4.97s5.97-.63,3.81-2.23Z"/>
    <path class="cls-4" d="m1320.83,501.78c5.1-.64,10.53,1.28,13.76,5.11s4.02,9.47,1.72,13.86c-2.3,4.4-7.68,7.2-12.76,6.43-3.74-.57-7-2.87-9.46-5.62-2.03-2.27-3.69-5.15-3.33-8.12.4-3.36,3.36-6.04,6.67-7.26,3.3-1.21,6.94-1.24,3.4-4.4Z"/>
    <path class="cls-4" d="m1309.09,483.82c5.17-1.27,10.83,2.97,11.28,8.06.45,5.09-3.85,9.98-9.1,10.95-4.27.79-9-.89-11.49-4.3-2.49-3.41-2.44-8.4.31-11.62s8.06-4.22,8.99-3.09Z"/>
    <path class="cls-4" d="m1279.51,483.76c4.58-2.5,10.62-1.59,14.35,2.18,3.74,3.76,4.9,10.1,2.77,15.08-2.13,4.97-7.4,8.22-12.53,7.73-5.13-.5-9.76-4.7-11.01-10-.6-2.56-.45-5.36.64-7.74,1.72-3.75,5.43-5.99,5.77-7.24Z"/>
    <path class="cls-4" d="m1290.52,503.13c5.04-.24,10.33,1.53,13.47,5.24,3.14,3.7,3.69,9.38.7,13.19-1.87,2.39-4.92,3.86-8.06,4.21-4.37.49-8.97-1.21-11.71-4.43-2.74-3.22-3.47-7.88-1.7-11.66s5.99-6.49,7.3-6.55Z"/>
    <path class="cls-4" d="m1274.4,520.04c2.42-.94,5.29-.39,7.45,1.01,2.16,1.4,3.69,3.56,4.75,5.84,2.07,4.48,2.21,10.37-1.59,13.65-3.43,2.97-8.77,2.73-13.16,1.34-4.4-1.39-8.82-4.22-9.83-8.54-1.01-4.33,1.83-8.8,5.69-11.26s8.56-3.33,6.7-2.04Z"/>
    <path class="cls-4" d="m1305.79,545.92c5.49-.91,11.47,1.79,13.93,6.28s1.2,10.39-2.95,13.74c-3.17,2.56-7.93,3.56-11.92,2.21-2.88-.97-5.21-3.07-6.5-5.58-1.84-3.57-1.53-7.96.8-11.29s6.59-5.5,6.64-5.36Z"/>
    <path class="cls-4" d="m1259.42,499.42c5.49-.91,11.47,1.79,13.93,6.28s1.2,10.39-2.95,13.74c-3.17,2.56-7.93,3.56-11.92,2.21-2.88-.97-5.21-3.07-6.5-5.58-1.84-3.57-1.53-7.96.8-11.29s6.59-5.5,6.64-5.36Z"/>
    <path class="cls-4" d="m1304.48,519.33c5.6-2.4,13.01.63,15.06,6.16s-1.74,12.35-7.68,13.82-12.72-2.75-13.7-8.54,4.06-11.85,6.32-11.45Z"/>
    <path class="cls-4" d="m1289.88,531.99c5.6-2.4,13.01.63,15.06,6.16,2.05,5.53-1.74,12.35-7.68,13.82s-12.72-2.75-13.7-8.54c-.98-5.79,4.06-11.85,6.32-11.45Z"/>
  </g>
  <g id="Layer_20" data-name="Layer 20">
    <path class="cls-26" d="m1271.77,642.95c9.41-9.95,10.64-24.96,3.1-36.02-7.55-11.05-23.3-17.49-38.1-15.7-14.8,1.79-27.8,11.61-31.9,23.93-2.07,6.22-2,12.93.01,19.17,4.23,13.13,17.91,23.96,33.71,25.4,15.81,1.43,32.45-7.43,33.17-16.79Z"/>
    <path class="cls-26" d="m1227.33,647.23c-9.17-5.61-19.62-11.29-30.8-10.11-13.93,1.48-23.66,13.72-24.67,25.71-1.11,13.07,6.82,26.76,20.45,32.71,13.63,5.95,32.25,2.84,41.08-7.87,4.52-5.47,6.31-12.24,7.49-18.87,1.11-6.25,1.47-13.37-3.4-18.13-4.42-4.32-11.71-5.28-10.14-3.46Z"/>
    <path class="cls-26" d="m1230.06,683.11c-8.26,7.5-12.15,7.85-16.17,16.52-4.02,8.67-1.01,19.08,6.28,26.01,7.29,6.93,18.27,10.53,29.14,10.86,9.21.28,18.85-1.83,25.6-7.21,6.57-5.24,9.72-12.97,10.93-20.6,1.21-7.69.42-16.15-5.34-22.13-6.13-6.36-16.77-8.49-26.27-7.2-9.5,1.28-20.8.7-24.17,3.76Z"/>
    <path class="cls-26" d="m1299.11,660.98c-8.75-3.99-18.64-8.11-27.77-5.8-8.38,2.12-13.77,9.59-14.06,17.26-.29,7.66,3.84,15.3,9.71,21.35,7.84,8.08,19.2,13.86,31.05,14.67,11.86.81,23.95-3.76,29.95-12.31,6-8.55,4.99-20.89-3.23-28.68-8.8-8.34-22.91-10.05-25.65-6.49Z"/>
    <path class="cls-26" d="m1287.77,664.24c6.58,4.39,16.11-.03,22.46-4.65,6.36-4.62,10.57-11.46,12.71-18.58,1.93-6.42,2.28-13.31.09-19.49s-7.08-11.57-13.66-13.86c-8.08-2.82-17.54-.72-25.4,3.19-9.07,4.52-17.02,11.73-20.34,20.69-3.32,8.96-1.23,19.65,6.42,25.44,6.84,5.17,16.13,6.2,17.71,7.26Z"/>
    <path class="cls-26" d="m607.44,750.72c-10.57,8.71-13.65,23.46-7.53,35.36,6.12,11.9,20.96,20.23,35.86,20.29,14.91.05,29.02-8.09,34.61-19.8,2.82-5.92,3.58-12.59,2.36-19.03-2.57-13.55-14.81-25.99-30.31-29.37-15.51-3.38-33.12,3.37-34.99,12.56Z"/>
    <path class="cls-26" d="m652.07,751.97c8.4,6.7,18.08,13.63,29.32,13.84,14,.26,25.17-10.69,27.66-22.46,2.71-12.84-3.46-27.4-16.25-34.99-12.79-7.59-31.65-6.8-41.74,2.73-5.16,4.87-7.78,11.36-9.76,17.8-1.87,6.07-3.11,13.08,1.13,18.41,3.85,4.84,10.97,6.69,9.64,4.68Z"/>
    <path class="cls-26" d="m653.8,716.03c9.12-6.42,13.03-6.29,18.09-14.39,5.06-8.1,3.36-18.81-3.02-26.58-6.37-7.77-16.83-12.71-27.58-14.37-9.11-1.41-18.93-.51-26.3,3.99-7.17,4.39-11.25,11.67-13.39,19.09-2.15,7.48-2.42,15.98,2.56,22.62,5.3,7.06,15.59,10.49,25.18,10.4,9.59-.1,20.73,1.88,24.45-.75Z"/>
    <path class="cls-26" d="m582.54,729.45c8.19,5.04,17.5,10.35,26.84,9.19,8.58-1.07,14.85-7.82,16.08-15.39,1.23-7.57-1.92-15.65-6.99-22.39-6.78-8.99-17.34-16.13-29-18.4s-24.23.77-31.24,8.52c-7.01,7.74-7.54,20.11-.34,28.86,7.71,9.37,21.49,12.81,24.65,9.61Z"/>
    <path class="cls-26" d="m594.2,727.61c-5.99-5.17-15.99-1.96-22.87,1.84-6.88,3.8-11.9,10.06-14.91,16.87-2.71,6.13-3.91,12.92-2.5,19.32,1.41,6.4,5.6,12.36,11.84,15.44,7.67,3.8,17.32,2.88,25.6-.03,9.56-3.36,18.34-9.53,22.74-18.02,4.4-8.48,3.65-19.35-3.23-26.04-6.14-5.98-15.24-8.15-16.67-9.39Z"/>
    <path class="cls-26" d="m814.43,275.2c-9.08,6.95-11.72,18.73-6.47,28.23,5.26,9.5,18,16.15,30.8,16.2,12.8.04,24.93-6.46,29.73-15.81,2.43-4.73,3.08-10.05,2.03-15.19-2.21-10.82-12.72-20.76-26.04-23.45-13.32-2.7-28.45,2.69-30.05,10.03Z"/>
    <path class="cls-26" d="m852.76,276.19c7.22,5.35,15.53,10.88,25.18,11.05,12.03.21,21.62-8.53,23.76-17.94,2.33-10.25-2.97-21.88-13.95-27.94-10.98-6.06-27.19-5.43-35.85,2.18-4.43,3.89-6.68,9.07-8.38,14.21-1.61,4.85-2.67,10.45.97,14.7,3.31,3.86,9.42,5.34,8.28,3.74Z"/>
    <path class="cls-26" d="m854.25,247.5c7.84-5.13,11.19-5.02,15.53-11.49,4.34-6.47,2.88-15.02-2.59-21.23s-14.45-10.15-23.69-11.48c-7.82-1.13-16.26-.41-22.59,3.19-6.16,3.5-9.66,9.32-11.5,15.24-1.85,5.97-2.08,12.76,2.2,18.06,4.55,5.64,13.39,8.38,21.62,8.3,8.24-.08,17.8,1.5,21-.6Z"/>
    <path class="cls-26" d="m793.05,258.21c7.03,4.03,15.03,8.27,23.05,7.34,7.37-.85,12.75-6.24,13.81-12.29,1.06-6.04-1.65-12.5-6.01-17.87-5.82-7.18-14.89-12.88-24.91-14.69-10.02-1.81-20.81.62-26.83,6.8s-6.47,16.06-.29,23.04c6.62,7.48,18.45,10.23,21.17,7.67Z"/>
    <path class="cls-26" d="m803.06,256.75c-5.14-4.13-13.73-1.57-19.64,1.47-5.91,3.03-10.22,8.03-12.81,13.47-2.33,4.9-3.36,10.32-2.15,15.43,1.21,5.11,4.81,9.87,10.17,12.33,6.59,3.03,14.87,2.3,21.99-.02,8.21-2.68,15.75-7.61,19.53-14.39,3.78-6.77,3.14-15.45-2.77-20.79-5.28-4.77-13.09-6.5-14.32-7.5Z"/>
  </g>
  <g id="Layer_27" data-name="Layer 27">
    <path class="cls-10" d="m1249.57,595.68c-10.61-.4-21.69,1.62-30.11,7.65-8.42,6.03-13.53,16.6-10.67,26.13.88,2.95,3.42,6.18,6.65,5.58,2.34-.43,3.74-2.75,4.08-4.95.34-2.2-.05-4.45.27-6.65.72-4.88,5.36-9.02,10.63-9.48,3.92-.34,8.77.82,11.13-2.11,1.82-2.26,1.07-6.07,3.64-7.56,1.27-.74,2.92-.58,4.32-1.09,1.89-.69,3.11-2.69,2.77-4.55s-2.2-3.38-2.7-2.96Z"/>
    <path class="cls-10" d="m1210.92,647.64c-5.65-5.26-14.43-6.04-21.54-1.9s-12.16,12.96-12.38,21.64c-.05,1.9.27,4.07,1.74,4.85,1.57.84,3.59-.42,4.89-1.97,2.35-2.81,3.47-6.56,5.25-9.84s4.83-6.4,8.02-5.94c1.55.22,2.87,1.28,4.42,1.54,2.34.39,4.83-1.14,6.53-3.25,1.7-2.11,2.75-4.72,3.09-5.11Z"/>
    <path class="cls-10" d="m1305.05,613.4c-4.29-.47-8.68-.79-12.89.16s-8.28,3.37-10.28,7.2c-.89,1.71-1.04,4.32.73,5.08,1.23.52,2.59-.21,3.77-.84,7.2-3.82,16.23-4,23.58-.46.64-5.41-2.43-10.87-4.9-11.14Z"/>
    <path class="cls-10" d="m1302.5,703c3.93-1.8,7.86-3.77,10.99-6.75,3.13-2.98,5.38-7.14,5.14-11.45-.11-1.92-1.32-4.24-3.23-3.99-1.32.18-2.12,1.51-2.81,2.65-4.23,6.98-11.88,11.76-20,12.49,2.22,4.97,7.66,8.08,9.92,7.05Z"/>
    <path class="cls-10" d="m1233.4,729.04c5.91.64,11.95,1.08,17.75-.22,5.8-1.3,11.4-4.58,14.16-9.78,1.23-2.32,1.44-5.87-1-6.9-1.69-.71-3.57.29-5.19,1.14-9.92,5.19-22.34,5.43-32.45.63-.89,7.34,3.35,14.76,6.75,15.13Z"/>
    <path class="cls-10" d="m631.96,662.65c9.02-2.16,19.07.61,25.69,7.1,1.91,1.87,3.59,4.12,4.09,6.75s-.45,5.66-2.77,6.98c-2.8,1.6-6.36.26-9.05-1.52s-5.27-4.06-8.47-4.47c-3.87-.49-7.54,1.94-10.18,4.82s-4.69,6.3-7.67,8.82-7.39,3.97-10.8,2.08c-3.42-1.9-4.52-6.57-3.4-10.32s13.53-18.08,22.55-20.24Z"/>
    <path class="cls-10" d="m595.4,688.69c-7.34-3.71-16.79-4.1-24.51-1-7.71,3.1-13.48,9.59-14.94,16.83-.66,3.28-.38,6.93,2.02,9.53,2.41,2.6,7.41,3.5,10.16,1.18,4.13-3.49.15-9.82,2.38-14.42,1.52-3.14,5.51-4.71,9.16-5.98,6.7-2.35,13.41-4.7,15.73-6.13Z"/>
    <path class="cls-10" d="m560.12,765.47c.7,3.3,2.78,7.06,6.68,7.05,4.8-.02,7.18-5.63,6.59-9.75s-2.54-8.43-.42-12.32c1.5-2.75,4.87-4.84,5.25-7.8.35-2.78-2.28-5.13-5.29-5.85-3.01-.72-15.06,18.03-12.8,28.67Z"/>
    <path class="cls-10" d="m627.28,797.2c-3.71-1.09-7.69-4.18-6.92-9.81.94-6.94,7.94-10.24,12.63-9.28,4.69.95,9.33,3.87,14.27.9,3.49-2.1,6.58-6.92,10.1-7.39,3.3-.44,6.45,3.45,5.79,7.78-2.22,14.51-23.91,21.32-35.87,17.8Z"/>
    <path class="cls-10" d="m675.04,749.62c10.03-4.76,17.6-14.41,19.83-25.29,2.38,2.37,3.04,6.05,2.51,9.36s-2.08,6.36-3.61,9.35c-1.76,3.44-3.62,6.99-6.68,9.35-3.06,2.36-7.7,3.14-10.73.75s-5.41-3-1.31-3.52Z"/>
    <path class="cls-10" d="m794.24,223.68c-4.53-2.67-10.61-1.91-14.86,1.2s-6.74,8.23-7.44,13.44c-.29,2.17-.28,4.46.7,6.42s3.14,3.44,5.29,3.07c3.5-.6,4.59-5.06,4.66-8.61s.37-7.91,3.58-9.42c1.44-.68,3.12-.55,4.71-.59s3.35-.34,4.36-1.57.35-3.14-1.01-3.94Z"/>
    <path class="cls-10" d="m818.34,219.56c2.42-7.39,9.32-13.1,17.02-14.12s15.84,2.73,20.09,9.23c-5.55-.64-11.16-1.28-16.69-.51s-11.05,3.12-14.53,7.48c-1.11,1.39-2.23,3.1-3.99,3.28-2.42.25-4.05-2.88-3.33-5.2s2.84-3.9,1.43-.17Z"/>
    <path class="cls-10" d="m785.03,265.25c-8.26,2.23-14.06,11.26-12.64,19.7.36,2.12,1.16,4.26,2.78,5.67s4.17,1.9,5.95.7c2.41-1.63,2.3-5.16,1.87-8.04s-.71-6.35,1.56-8.17c1.38-1.11,3.44-1.29,4.54-2.68,1.14-1.44.73-3.65-.43-5.07s-2.9-2.28-3.61-2.09Z"/>
    <path class="cls-10" d="m868.87,242.17c6.06-2.45,13.38-1.45,18.56,2.52,5.18,3.98,8.04,10.79,7.25,17.27-.25,2-.86,4.04-2.24,5.51s-3.68,2.2-5.5,1.32c-2.91-1.41-2.86-5.45-3.72-8.57-.79-2.86-2.73-5.4-5.28-6.91-1.96-1.16-4.22-1.72-6.27-2.71s-4.03-2.61-4.48-4.84,1.38-4.91,1.69-3.58Z"/>
    <path class="cls-10" d="m823.94,301.78c9.25,4.19,21.37.26,26.4-8.56,1.45-2.54,2.62-5.65,5.36-6.68,3.28-1.25,7.03,1.61,7.8,5.04s-.68,6.97-2.6,9.91c-4.15,6.32-10.73,11-18.06,12.85s-15.35.82-21.99-2.79c-1.77-.96-3.49-2.15-4.59-3.83s-1.5-3.95-.56-5.73c.98-1.85,3.21-2.79,5.3-2.77s4.11.81,2.95,2.57Z"/>
  </g>
  <g id="Layer_26" data-name="Layer 26">
    <path class="cls-40" d="m581.08,438.21c.2-9.92.15-20.64-5.71-28.64s-19.91-10.4-25.14-1.97c-5.05,8.13,1.43,18.33,7.6,25.64,3.74,4.43,7.9,9.13,13.57,10.36s12.75-3.2,9.68-5.39Z"/>
    <path class="cls-40" d="m668.62,356.29c-6.31-10.16-8.93-22.56-7.25-34.4.57-4.07,2-8.54,5.67-10.38,3.91-1.96,8.93.12,11.49,3.66s3.16,8.14,3.18,12.51c.05,11.53-3.43,23.05-13.09,28.6Z"/>
    <path class="cls-40" d="m714.93,557.49c1.88-6.63,3.93-13.54,8.7-18.51,4.77-4.97,13.18-7.18,18.63-2.96,7.17,5.56,3.81,18.14-4.03,22.7s-17.64,3.42-23.3-1.23Z"/>
    <path class="cls-40" d="m1266.56,290.18c-7.05-2.57-12.41-9.29-13.34-16.74-.93-7.45,2.61-15.28,8.81-19.51,7.91,8.59,10.68,21.59,4.53,36.24Z"/>
    <path class="cls-40" d="m1161.11,530.06c1.57-6.19,1.49-13.18-2.07-18.48-3.56-5.3-11.32-7.99-16.69-4.52-6.04,3.91-6,13.35-1.83,19.21,4.17,5.86,11.08,9.02,17.67,11.91,4.72-3.77,6.4-10.88,2.93-8.13Z"/>
    <path class="cls-40" d="m1282.68,397.43c-.58-11.59,1.9-23.32,7.13-33.69,1.52-3.02,3.96-6.33,7.34-6.14,2.88.16,5.03,3.02,5.36,5.88s-.73,5.7-1.86,8.35c-4.2,9.81-9.79,19.01-17.97,25.6Z"/>
    <path class="cls-40" d="m1350.92,575.64c-.38-5.33-.74-10.79.86-15.9,1.6-5.11,5.62-9.87,11.05-10.86,5.43-1,11.72,3.14,11.41,8.47-.6,10.55-20.53,9.82-23.32,18.3Z"/>
    <path class="cls-40" d="m1165.94,766.42c4.72-3.06,9.57-6.18,15.07-7.35s11.86-.01,15.44,4.33c3.58,4.34,2.81,12.06-2.28,14.45-2.85,1.34-6.21.82-9.24-.05-8.38-2.42-15.99-7.43-18.99-11.37Z"/>
    <path class="cls-40" d="m794.74,878.07c-4.11,4.51-8.3,9.13-10.7,14.74s-2.72,12.5.74,17.53,11.31,7.02,15.94,3.04c5.28-4.53,3.71-13.21.07-19.13-3.64-5.93-8.96-11.13-6.05-16.18Z"/>
    <path class="cls-40" d="m1416.12,459.69c2.56-5.34,5.21-10.79,9.41-14.96,4.21-4.17,10.36-6.88,16.1-5.43s10.14,8.06,7.89,13.54c-2.55,6.24-10.93,7.3-17.61,6.44s-14.15-2.49-15.8.41Z"/>
    <path class="cls-40" d="m1019.21,233.11c-2.39-5.2-4.82-10.53-5.36-16.23s1.18-11.95,5.73-15.41c4.56-3.47,12.16-2.89,15.06,2.04,3.14,5.34-.32,12.17-4.57,16.68s-9.61,8.62-10.87,12.91Z"/>
    <path class="cls-40" d="m548.61,643.06c-4.57,2.17-9.88-.03-14.87-.86-4.99-.82-11.7,1.35-11.63,6.41.07,4.76,5.91,6.89,10.6,7.74,4.87.88,10.08,1.73,14.63-.22s7.72-7.9,1.27-13.06Z"/>
    <path class="cls-40" d="m730.18,681.4c1.87-4.62,3.89-9.45,7.76-12.58s10.21-3.84,13.55-.15c4.1,4.52.79,12.43-4.73,15.03-5.52,2.6-12,1.51-17.98.24-.42-1.38-.83-2.76,1.39-2.54Z"/>
    <path class="cls-40" d="m879.79,172.08c-3.15-4.76-6.35-9.65-7.68-15.2s-.43-11.99,3.71-15.92,11.85-3.98,15,.77c3.21,4.83.52,11.39-3,16s-8.04,9.03-8.03,14.34Z"/>
    <line class="cls-40" x1="1503.86" y1="861.93" x2="1742.86" y2="778.63"/>
  </g>
  <g id="Layer_23" data-name="Layer 23">
    <path class="cls-39" d="m1252.51,644.66c-.73-.07-9.2,2.09-13.09,5.25s-6.42,7.76-7.93,12.54c-2.26,7.15-2,15.98,3.64,20.92,4.61,4.04,11.37,4.29,17.47,3.74,7.21-.66,14.88-2.44,19.68-7.86,3.2-3.61,4.72-8.46,5.07-13.27.53-7.3-1.8-15.17-7.55-19.69s-12.32-1.19-17.29-1.64Z"/>
    <path class="cls-23" d="m1243.88,686.71c12.15,0,19.59-7.36,24.79-14.61s5.84-17.51,1.58-25.35c7.29,5.8,10.59,16.17,7.99,25.12-2.6,8.95-10.95,15.93-20.21,16.92-6.23.66-8.85.01-14.15-2.08Z"/>
    <path class="cls-39" d="m626.12,711.19c-.76-.07-9.5,2.22-13.52,5.58-4.02,3.36-6.63,8.24-8.19,13.32-2.33,7.59-2.06,16.97,3.76,22.22,4.76,4.29,11.74,4.56,18.04,3.97,7.45-.7,15.37-2.59,20.32-8.35,3.3-3.83,4.88-8.99,5.24-14.1.55-7.75-1.86-16.11-7.8-20.91-5.94-4.81-12.73-1.26-17.86-1.74Z"/>
    <path class="cls-23" d="m616.76,755.76c12.85,0,20.73-7.78,26.23-15.46,5.5-7.68,6.17-18.53,1.67-26.83,7.72,6.14,11.21,17.11,8.45,26.58-2.75,9.47-11.58,16.86-21.38,17.9-6.59.7-9.37.02-14.97-2.2Z"/>
    <path class="cls-39" d="m829.8,240.45c-.6-.06-7.48,1.79-10.65,4.49-3.17,2.7-5.22,6.62-6.45,10.71-1.84,6.1-1.62,13.64,2.96,17.86,3.75,3.45,9.25,3.67,14.21,3.19,5.86-.56,12.1-2.08,16-6.71,2.6-3.08,3.84-7.23,4.13-11.33.43-6.23-1.46-12.95-6.14-16.81-4.68-3.86-10.02-1.01-14.06-1.4Z"/>
    <path class="cls-23" d="m822.78,276.35c9.88,0,15.93-6.28,20.16-12.47,4.23-6.19,4.75-14.95,1.28-21.64,5.93,4.95,8.61,13.8,6.5,21.44-2.12,7.64-8.9,13.6-16.44,14.44-5.06.57-7.2.01-11.51-1.77Z"/>
  </g>
  <g id="Layer_21" data-name="Layer 21">
    <path class="cls-28" d="m672.21,764.27c2.35,3.48,2.84,8,2.03,12.13-.8,4.13-2.28,9.17-4.52,12.72-4.12,6.5-10,11.3-17.09,14.22-7.09,2.92-28.92,7.29-40.06-3.86,6.87,1.35,34.12,2.39,40.37-5.77,4.25-5.56,8.83-6.12,11.58-11.57s2.83-9.04,2.67-12.98c-.13-3.24-.52-8.01-4.46-11.95"/>
    <path class="cls-28" d="m1262.1,640.24c5.37-2.88,10.63-10.98,11.11-17.05.48-6.07-1.83-13.84-4.99-19.05-3.17-5.2-9.15-5.85-13.52-10.09,7.26.88,14.28,4.52,18.62,10.39,4.35,5.88,5.72,14.02,2.9,20.76-2.93,7-9.61,11.58-14.13,15.03Z"/>
    <path class="cls-28" d="m1290.39,656.16c9.28,1.23,20.08-3.36,25.09-11.27,5.01-7.91,5.97-20.78,3.99-29.88,4.84,7.45,6.36,18.46,3.94,26.72-2.03,6.93-7.49,15.32-14.22,17.94s-14.59-.59-18.8-3.51Z"/>
    <path class="cls-28" d="m1286.33,705.55c8.89,4.04,29.81-5.08,34.64-13.56,6.44-11.28,4.71-15.41,3.04-24.18,10.54,5.48,10.57,23.29.62,32.16-11.89,10.6-30.34,9.94-38.3,5.58Z"/>
    <path class="cls-28" d="m1232.25,732.62c6.39,2.64,15.79-.96,22.45-2.96,6.65-2,12.48-6.22,15.96-11.83,2.93-4.72,4.12-8.67,2.44-13.88s-2.28-9.7-8.14-10.19c3.98.67,7.99,1.47,11.6,3.15,3.61,1.68,6.84,4.36,8.29,7.85,1.5,3.61.94,7.75-.78,11.28-1.72,3.53-3.65,8.25-6.64,10.95-5.49,4.95-12.44,8.72-20.79,9.52-7.62.73-22.19-.38-24.39-3.89Z"/>
    <path class="cls-28" d="m1183.83,688.17c3.96,5.58,11.74,9.04,19.54,8.99s15.38-3.47,19.97-8.7c4.59-5.23,6.2-12.11,4.69-18.46,2.26,7.94,2.5,17.1-3.75,23.4-5.41,5.46-14.99,7.48-23.21,5.61-8.22-1.87-14.93-7.23-17.25-10.84Z"/>
    <path class="cls-28" d="m1228.86,651.93c-3.8-5.34-7.77-8.59-13.29-12.14-3.32-2.13-7.9-3.81-10.97-1.32,10.68,2.08,20.19,9.48,24.82,19.32.69-2.26-.13-5.14-.57-5.86Z"/>
    <path class="cls-28" d="m1273.65,681.05c-1.71,5.75.64,12.48,5.56,15.91-3.08-4.92-4.94-10.6-5.56-15.91Z"/>
    <path class="cls-28" d="m667.18,761.72c-2.23-5.57-8.25-9.38-14.24-9.01,5.47,1.94,10.46,5.24,14.24,9.01Z"/>
    <path class="cls-28" d="m811.47,287.19c-4.27,4.21-5.45,11.24-2.79,16.62-.33-5.8.78-11.67,2.79-16.62Z"/>
    <path class="cls-28" d="m667.18,761.72c7.18-1.68,29.18-7.11,31.87-13.87,2.68-6.75,4.04-13.84,2.69-20.79-1.36-6.95-4.51-11.53-7.43-17.78,7.1,3.35,13.15,10.84,15.47,18.94,2.32,8.1-.09,17.2-4.53,24.57-8.13,13.51-28.53,17.4-38.06,8.92Z"/>
    <path class="cls-28" d="m649.2,717.36c7.85.71,16.57-4.51,20.22-12.74,3.65-8.23,1.73-20.54-.55-29.57,6,6,8.43,17.51,6.96,25.94-1.23,7.08-5.33,13.27-10.79,16.28-5.45,3.01-12.14,2.77-15.85.08Z"/>
    <path class="cls-28" d="m581.01,730.25c7.51,3.41,19.88-4.77,23.87-13.32,5.25-11.27-.44-19.6-3.06-28.91,7.73,6.8,12.02,24.93,6.22,33.03-5.8,8.1-20.19,13.07-27.03,9.2Z"/>
    <path class="cls-28" d="m555.64,768.89c3.04,6.35,10.19,11.1,17.91,12.22,7.72,1.12,15.75-1.28,21.11-5.99,5.36-4.72,8.03-11.58,7.54-18.37.99,8.55-.21,18.04-7.37,23.62-6.21,4.83-15.99,5.48-23.82,2.31-7.83-3.17-13.63-9.71-15.35-13.79Z"/>
    <path class="cls-28" d="m855.46,246.47c4.81-2.77,6.92-2.36,10.85-11.51,2.11-4.93.58-10.04-2.61-14.48-3.19-4.44-10.53-12.3-14.78-15.84,6.75.46,14.21,4.59,18.52,9.57,4.31,4.98,5.99,12.09,3.73,18.15-2.35,6.29-5.13,14.12-15.7,14.12Z"/>
    <path class="cls-28" d="m874.36,286.25c8.57-.47,17.75-5.52,21.25-12.18,3.5-6.67,3.42-19.43.43-25.94,5.36,4.84,7.45,15.85,6.34,22.39-.93,5.49-5.04,10.68-10.79,13.65-5.75,2.97-13.03,3.64-17.22,2.09Z"/>
    <path class="cls-28" d="m799.12,257.64c6.9-1.48,14.02-12.26,14.49-19.32.62-9.29-6.37-11.66-11.28-16.06,8.11.47,17.03,9.42,15,17.06-2.03,7.64-11.7,17.43-18.22,18.32Z"/>
    <path class="cls-28" d="m824.85,317.01c6.42,1.7,15.22.06,21.32-2.59,6.1-2.65,12.1-7.3,14.72-12.94,2.21-4.74,5.69-9.45,3.44-14.11-2.25-4.65-7.55-8.17-13.2-7.93,3.88.16,7.81.42,11.47,1.56,3.66,1.14,7.07,3.24,8.89,6.32,1.88,3.18,1.86,7.1.66,10.58-1.2,3.48-3.49,6.59-6.02,9.46-4.63,5.26-10.41,10.03-17.49,11.98s-21.26.67-23.79-2.33Z"/>
    <path class="cls-28" d="m774.95,295.52c4.03,3.63,10.97,5.15,17.46,4.04,6.49-1.11,12.36-4.71,15.5-9.25s3.58-9.91,1.5-14.45c2.92,5.63,4.32,12.44-.06,18.02-3.8,4.82-11.51,7.65-18.6,7.38-7.09-.27-13.39-3.36-15.79-5.74Z"/>
  </g>
  <g id="Layer_37" data-name="Layer 37">
    <path class="cls-28" d="m832.09,236.82c-2.27-5.99-1.94-12.92.89-18.67-.17,6.54-.35,13.09-.89,18.67Z"/>
    <path class="cls-28" d="m844.5,236.46c2.18-5.71,5.37-11.03,9.39-15.63.79.93.88,2.3.52,3.47s-1.1,2.17-1.84,3.14c-2.99,3.93-6.17,7.72-8.07,9.02Z"/>
    <path class="cls-28" d="m828.33,285.07c-1.38,6.72-1.28,13.73.29,20.41,2.29-2.76,2.95-6.58,2.57-10.15s-1.69-6.96-2.87-10.26Z"/>
    <path class="cls-28" d="m840.47,282.37c1.37,5.42,4.12,10.49,7.91,14.6-.27-5.81-3.12-11.45-7.91-14.6Z"/>
    <path class="cls-28" d="m802.02,248.79c-5.83-2.23-10.84-6.51-13.94-11.93,5.78,2.22,10.85,6.24,13.94,11.93Z"/>
    <path class="cls-28" d="m856.5,259.88c4.51-3.25,10.69-4.03,15.87-2-5.45,1.7-11.21,2.41-15.87,2Z"/>
    <path class="cls-28" d="m804.63,268.11c-5.68,1.16-10.76,4.98-13.45,10.12,3.39-.23,6.13-2.77,8.47-5.24s4.85-5.15,4.98-4.87Z"/>
    <path class="cls-28" d="m1237.81,639.57c-6.31-5.06-10.17-13.04-10.23-21.13,1.2,7.13,4.06,13.98,10.23,21.13Z"/>
    <path class="cls-28" d="m1252.2,634.62c-2.07-7.42-2.02-15.43.15-22.82,1.82,7.63,1.87,15.68-.15,22.82Z"/>
    <path class="cls-28" d="m1282.87,644.29c4.85-4.4,10.45-7.98,16.49-10.51-1.5,2.83-4.08,4.96-6.9,6.46s-5.92,2.42-9.59,4.05Z"/>
    <path class="cls-28" d="m1243.68,693.55c-4.07,5.12-6.64,11.42-7.3,17.92,4.04-4.81,6.61-10.85,7.3-17.92Z"/>
    <path class="cls-28" d="m1285.27,671.9c5.92.49,11.69,2.6,16.53,6.03-6.27-1.22-12.85-2.58-16.53-6.03Z"/>
    <path class="cls-28" d="m1224.29,662.98c-3.46-.34-6.93-.68-10.4-.41s-6.94,1.21-9.78,3.22c6.61-.82,13.23-1.64,20.17-2.81Z"/>
    <path class="cls-28" d="m630.28,705.21c-3.02-7.73-2.52-16.76,1.32-24.12,1.23,7.83.92,15.89-1.32,24.12Z"/>
    <path class="cls-28" d="m646.59,706.87c3.94-6.28,7.87-12.56,11.81-18.83-3.85,6.84-7.7,13.69-11.81,18.83Z"/>
    <path class="cls-28" d="m660.07,733.36c7.09-2.35,14.89-2.52,22.08-.47-6.78,2.08-14.21,1.94-22.08.47Z"/>
    <path class="cls-28" d="m625.62,764.1c-4.77,7.2-5.31,17-1.37,24.68.37-8.24.74-16.47,1.37-24.68Z"/>
    <path class="cls-28" d="m640.79,761.58c5.26,6.02,8.52,13.76,9.15,21.73-4.79-6.49-7.94-14.17-9.15-21.73Z"/>
    <path class="cls-28" d="m595.47,751.4c-6.69,1.82-12.55,6.52-15.77,12.66,5.2-5.14,11.28-9.39,15.77-12.66Z"/>
    <path class="cls-28" d="m601.42,715.67c-5.84-4.01-13.22-5.73-20.23-4.71,6.72,1.49,13.45,2.98,20.23,4.71Z"/>
    <path class="cls-28" d="m590.36,744.68c-4.8-1.68-10.42-.78-14.45,2.31,5.34-3.21,12.28-.67,18.35-2.03-.27-.24-.53-.49-3.9-.28Z"/>
  </g>
  <g id="Layer_35" data-name="Layer 35">
    <path class="cls-44" d="m1300.57,583.64c3.89-3.13,1.76-9.48-2.53-12.12-4.29-2.65-9.74-2.86-14.82-3.71s-10.6-2.88-12.52-7.3c-2.23-5.16,1.38-11.58-1.69-16.37-2.55-3.98-8.72-5.07-11.07-9.14-4.52-7.81,8.78-17.6,3.86-25.21-2.23-3.46-7.98-6.18-6.18-9.85-3.2-.93-6.56,1.83-7.17,4.87-.61,3.04.71,6.12,2.15,8.92s3.04,5.68,3.03,8.77c-.02,6.51-7.12,12.65-4.36,18.65,2.55,5.55,11.78,6.19,14.48,11.68,2.37,4.83-1.55,11.18,1.72,15.55,4.54,6.06,15.82.62,22.56,4.58,2.37,1.39,3.8,3.75,5.45,5.85,1.64,2.1,3.88,4.14,6.68,4.28s5.65-2.77.41.57Z"/>
    <path class="cls-8" d="m1303.67,481.64c1.46-4.16,7.38-5.74,11.47-3.77s6.33,6.47,6.68,10.85-.86,8.72-2.06,12.96c5.54-1.8,12.19.25,15.6,4.81,3.4,4.56,3.28,11.26-.29,15.7-1.81,2.25-4.54,4.35-4.33,7.19.29,3.8,5.26,5.1,8.61,7.15,4.57,2.8,6.78,8.69,5.13,13.64s-7.02,8.52-12.44,8.26c2.21,3.68,4.29,7.59,4.68,11.83.4,4.23-1.23,8.89-5,11.12-3.78,2.23-9.68.93-11.16-3.08-1.48-4.03,1.68-8.11,4.14-11.67s4.08-8.99.55-11.6c-2.13-1.57-5.68-1.62-6.65-4.03-.81-2,.94-4.14,2.84-5.27,1.91-1.13,4.19-1.87,5.51-3.6,3.08-4.05-1.19-9.42-5.23-12.6-4.04-3.18-8.62-8.12-6.04-12.48,1.05-1.78,3.21-3.07,3.35-5.1.27-3.69-5.34-4.29-8.7-6.1-4.17-2.25-5.28-7.42-5.97-11.97-.75-5.03-1.46-10.05-.7-12.24Z"/>
    <path class="cls-20" d="m755.67,332.92c-.74-7.94-1.48-15.88-2.22-23.82,12.89,7.05,15.27,17.84,10.9,25.91-1.53.23-7.92-1.81-8.62-3.11.99,1.93,4.05,2.15,5.95,1.02s2.96-3.11,4.08-4.94c5.13-8.32,13.31-14.94,22.89-18.51-4.44,7.22-8.95,14.53-15.14,20.52-1.67,1.62-1.52,5.1-3.8,5.88-2.28.78-7.08-1.3-8.93-2.81,5.62,2.99,9.45-3.04,15.54-4.79,6.09-1.75,16.27.97,21.68,4.27-8.56.72-16.82,3.76-23.51,8.68-2.34-2.36-.54-3.05-2.88-5.41,1.88,4.35,1.46,1.56,6.42,2.24s4.7-1.82,9.68-1.32,17.09,7.82,19.51,11.94c-10.19-3.07-20.95-4.39-31.57-3.87-.85-4.57-4.6-8.62-19.98-11.87Z"/>
    <path class="cls-34" d="m748.39,324.69c-3.6-6.1-12.92-8.37-19.02-4.63-6.11,3.74-7.72,12.69-3.29,18.29-7.86-3.6-18.41.48-21.29,8.21-2.87,7.74,2.58,17.39,11,19.46-9.09.51-18.3,5.97-20.32,14.39-2.02,8.42,5.96,18.42,14.92,16.96-8.04,2.81-10.5,14.4-4.28,20.14,6.22,5.74,18.32,3.04,21.03-4.69,1,5.95,7.71,10.52,13.92,9.48s10.72-7.47,9.37-13.36c4.31,5.59,13.02,7.64,19.45,4.58,6.44-3.06,9.84-10.87,7.6-17.45,6.68-.12,13.03-4.24,15.57-10.08,2.54-5.84,1.12-13.1-3.48-17.78,5.68-2.86,8.62-9.81,6.65-15.69-1.97-5.88-8.65-10.04-15.06-9.39,2.88-1.72,3.02-5.94,1.13-8.69s-5.15-4.31-8.32-5.59c-9.51-3.83-19.65-6.19-25.58-4.17Z"/>
    <path class="cls-5" d="m773.29,370.38c-3.72,4.04-6.68,9.69-4.51,14.72,2.12,4.91,9.23,7.08,13.98,4.41,4.74-2.67,6.16-9.39,3.07-13.82s-9.97-5.89-12.54-5.32Z"/>
    <path class="cls-5" d="m758.93,386.14c-5.39.81-9.14,6.22-8.78,11.41s4.18,9.84,8.97,12.42c2.5,1.35,5.57,2.21,8.19,1.18,1.81-.71,3.14-2.22,4.04-3.87,2.71-4.91,1.92-11.39-1.9-15.68-3.82-4.28-10.43-6.1-10.53-5.47Z"/>
    <path class="cls-5" d="m737.94,395.91c-4.49-.28-8.06,3.9-8.69,8.12-.59,4.01.93,8.43,4.37,10.89,3.44,2.45,8.76,2.43,11.69-.48,3.08-3.07,2.77-8.14.83-12.03-2.32-4.65-7.53-8.59-8.2-6.5Z"/>
    <path class="cls-5" d="m718.81,397.16c-3.99,1.62-8.16,3.37-10.79,6.65-2.63,3.28-3.02,8.58.35,11.27,3.02,2.42,7.6,1.76,11.09.11,1.86-.88,3.66-2.06,4.64-3.8,1.53-2.71.69-6.2-1.21-8.74s-4.69-4.32-4.08-5.49Z"/>
    <path class="cls-6" d="m718.91,367.19c-3.88.85-7.76,1.9-11.18,3.82-3.42,1.91-6.37,4.78-7.62,8.37-1.25,3.59-.54,7.92,2.32,10.62,2.19,2.06,5.3,2.96,8.33,3.4,3.37.49,6.98.46,9.95-1.08,3.41-1.78,5.42-5.27,6.76-8.75.99-2.57,1.71-5.41.8-8.03-.91-2.63-3.35-4.6-6.03-5.69-2.68-1.09-5.61-1.44-3.32-2.65Z"/>
    <path class="cls-6" d="m727.19,340.01c-4.77-1.32-10.22-.26-13.83,2.9s-5.15,8.39-3.56,12.87c1.58,4.48,6.32,7.89,11.27,7.87,3.65-.01,7.07-1.73,9.8-4,2.25-1.87,4.23-4.35,4.31-7.21.08-3.24-2.37-6.19-5.35-7.8-2.98-1.61-6.44-2.15-2.63-4.64Z"/>
    <path class="cls-7" d="m740.88,324.67c-4.76-1.92-10.74,1.29-11.88,6.04-1.14,4.75,2.29,9.98,7.15,11.63,3.96,1.34,8.7.42,11.55-2.46,2.85-2.88,3.49-7.6,1.31-11.04s-7.09-5.12-8.14-4.18Z"/>
    <path class="cls-6" d="m769.09,328.75c-4.02-3.01-9.9-2.99-13.99.05-4.08,3.04-6.08,8.87-4.74,13.88,1.34,5,5.91,8.82,10.88,9.06,4.96.25,9.96-3.08,11.88-7.92.93-2.34,1.17-5.01.46-7.41-1.11-3.79-4.35-6.43-4.5-7.66Z"/>
    <path class="cls-6" d="m755.9,345.54c-4.77-.94-10.06,0-13.57,3.07-3.51,3.06-4.82,8.36-2.5,12.38,1.46,2.52,4.15,4.34,7.1,5.11,4.1,1.07,8.72.11,11.78-2.55s4.4-6.97,3.24-10.79-4.81-6.98-6.05-7.22Z"/>
    <path class="cls-7" d="m768.93,363.79c-2.18-1.23-4.99-1.11-7.25-.09s-4.01,2.85-5.34,4.86c-2.6,3.94-3.54,9.5-.38,13.13,2.86,3.29,7.98,3.81,12.36,3.11,4.39-.7,8.99-2.75,10.56-6.7,1.57-3.95-.52-8.59-3.86-11.45-3.34-2.86-7.69-4.34-6.1-2.86Z"/>
    <path class="cls-6" d="m735.41,383.88c-5.1-1.63-11.18.09-14.15,3.99-2.97,3.9-2.59,9.66.9,13.41,2.67,2.87,7.06,4.48,11.06,3.76,2.88-.52,5.39-2.18,6.97-4.37,2.25-3.12,2.56-7.32.81-10.79-1.75-3.48-5.51-6.13-5.59-6Z"/>
    <path class="cls-6" d="m786.08,346.38c-5.1-1.63-11.18.09-14.15,3.99-2.97,3.9-2.59,9.66.9,13.41,2.67,2.87,7.06,4.48,11.06,3.76,2.88-.52,5.39-2.18,6.97-4.37,2.25-3.12,2.56-7.32.81-10.79-1.75-3.48-5.51-6.13-5.59-6Z"/>
    <path class="cls-6" d="m740.35,358.91c-5.01-3.05-12.5-1.22-15.21,3.72s-.06,11.93,5.4,14.15,12.51-.82,14.25-6.16c1.74-5.34-2.23-11.78-4.43-11.71Z"/>
    <path class="cls-6" d="m752.51,372.92c-5.01-3.05-12.5-1.22-15.21,3.72s-.06,11.93,5.4,14.15,12.51-.82,14.25-6.16-2.23-11.78-4.43-11.71Z"/>
    <path class="cls-45" d="m738.98,416.32c-2.94-3.27-.29-8.63,3.76-10.43,4.04-1.8,8.77-1.31,13.26-1.41s9.52-1.21,11.74-4.89c2.6-4.3.32-10.45,3.59-14.31,2.71-3.21,8.18-3.39,10.74-6.71,4.92-6.36-5.28-16.73-.05-22.86,2.38-2.78,7.68-4.47,6.61-7.96,2.88-.42,5.42,2.45,5.55,5.23.13,2.78-1.41,5.34-3.01,7.64s-3.36,4.65-3.76,7.4c-.83,5.78,4.49,12.13,1.33,17.1-2.93,4.6-10.97,4-14.01,8.53-2.68,3.99-.12,10.12-3.51,13.58-4.7,4.8-13.72-1.45-20.04,1.2-2.22.93-3.77,2.85-5.46,4.5-1.69,1.65-3.88,3.18-6.32,2.95s-4.51-3.17-.42.45Z"/>
    <path class="cls-8" d="m743.33,329.85c-.75-3.79-5.72-5.92-9.55-4.74s-6.36,4.79-7.22,8.54-.36,7.66.15,11.49c-4.62-2.27-10.7-1.35-14.25,2.17-3.56,3.51-4.3,9.33-1.74,13.63,1.3,2.18,3.42,4.35,2.87,6.78-.73,3.26-5.25,3.74-8.44,5.09-4.35,1.84-7.04,6.66-6.22,11.16s5.06,8.28,9.83,8.75c-2.41,2.91-4.71,6.03-5.6,9.64-.89,3.62-.06,7.86,2.96,10.27,3.02,2.42,8.35,2.05,10.15-1.23,1.81-3.3-.44-7.24-2.14-10.64s-2.42-8.31,1-10.12c2.06-1.09,5.18-.68,6.33-2.64.96-1.63-.29-3.7-1.82-4.93s-3.42-2.16-4.36-3.83c-2.18-3.9,2.24-8,6.18-10.24s8.57-5.93,6.87-10.03c-.69-1.67-2.42-3.07-2.28-4.85.24-3.23,5.21-3.03,8.39-4.17,3.94-1.41,5.57-5.75,6.74-9.6,1.3-4.26,2.56-8.52,2.17-10.51Z"/>
    <path class="cls-20" d="m746.51,780.8c1.96-8.1,3.91-16.21,5.87-24.31-14.3,5.33-18.37,16.14-15.09,25.15,1.53.47,8.41-.67,9.32-1.91-1.31,1.85-4.48,1.61-6.26.15s-2.57-3.67-3.45-5.73c-4.01-9.39-11.42-17.48-20.71-22.63,3.47,8.15,7,16.39,12.45,23.53,1.47,1.93.79,5.51,3.01,6.66,2.22,1.15,7.46-.27,9.6-1.55-6.22,2.24-9.24-4.58-15.23-7.32s-16.85-1.47-22.91,1.13c8.68,2.04,16.7,6.45,22.83,12.55,2.76-2.09,1.02-3.07,3.77-5.16-2.59,4.22-1.73,1.4-6.93,1.35-5.2-.05-4.55-2.6-9.74-2.84s-18.72,5.49-21.83,9.39c10.93-1.63,22.17-1.36,33,.79,1.56-4.6,6.03-8.21,22.31-9.25Z"/>
    <path class="cls-34" d="m755.22,773.39c4.62-5.77,14.52-6.7,20.23-1.9,5.71,4.8,6.01,14.31.62,19.43,8.61-2.53,18.83,3.29,20.62,11.73s-5.27,17.6-14.23,18.47c9.25,1.9,17.89,8.96,18.69,17.98s-8.9,18.16-17.88,15.28c7.83,4.13,8.61,16.49,1.35,21.49-7.26,4.99-19.27.37-20.88-8.04-1.93,6-9.5,9.71-15.72,7.7s-9.88-9.36-7.6-15.25c-5.27,5.13-14.52,5.93-20.66,1.78-6.15-4.15-8.46-12.74-5.17-19.21-6.84-1.14-12.74-6.36-14.46-12.79s.83-13.72,6.25-17.87c-5.4-3.82-7.38-11.46-4.46-17.25s10.39-9.08,16.88-7.43c-2.7-2.21-2.2-6.61.15-9.16s5.93-3.68,9.38-4.52c10.34-2.52,21.11-3.42,26.89-.43Z"/>
    <path class="cls-6" d="m722.77,816.89c3.21,4.75,5.4,11.04,2.41,15.92-2.92,4.76-10.55,5.93-15.02,2.44s-4.91-10.65-1.07-14.76c3.84-4.11,11.12-4.58,13.67-3.6Z"/>
    <path class="cls-6" d="m735.13,835.37c5.41,1.65,8.45,7.82,7.29,13.14-1.16,5.32-5.77,9.55-11.08,11.49-2.77,1.01-6.05,1.44-8.59-.02-1.75-1.01-2.88-2.78-3.57-4.62-2.04-5.49-.25-12.08,4.31-15.93,4.57-3.85,11.63-4.72,11.63-4.06Z"/>
    <path class="cls-6" d="m755.21,848.67c4.65.39,7.69,5.26,7.7,9.72,0,4.24-2.23,8.58-6.13,10.6-3.9,2.02-9.36,1.19-11.93-2.27-2.7-3.64-1.62-8.84.96-12.57,3.08-4.46,9.02-7.74,9.4-5.48Z"/>
    <path class="cls-6" d="m774.66,852.87c3.85,2.28,7.87,4.73,10.07,8.52,2.2,3.79,1.81,9.33-2.05,11.61-3.47,2.04-8.07.67-11.41-1.57-1.78-1.19-3.44-2.69-4.19-4.63-1.16-3.03.22-6.52,2.56-8.86s5.46-3.76,5.02-5.06Z"/>
    <path class="cls-6" d="m779.08,821.84c3.86,1.47,7.68,3.15,10.9,5.65s5.82,5.92,6.56,9.82c.74,3.9-.64,8.28-3.98,10.63-2.56,1.8-5.89,2.25-9.06,2.25-3.54,0-7.24-.58-10.05-2.63-3.24-2.36-4.77-6.28-5.62-10.08-.63-2.81-.94-5.86.39-8.43,1.33-2.58,4.13-4.25,7.05-4.97s5.97-.63,3.81-2.23Z"/>
    <path class="cls-6" d="m774.67,792.46c5.1-.64,10.53,1.28,13.76,5.11,3.23,3.83,4.02,9.47,1.72,13.86-2.3,4.4-7.68,7.2-12.76,6.43-3.74-.57-7-2.87-9.46-5.62-2.03-2.27-3.69-5.15-3.33-8.12.4-3.36,3.36-6.04,6.67-7.26,3.3-1.21,6.94-1.24,3.4-4.4Z"/>
    <path class="cls-6" d="m762.93,774.5c5.17-1.27,10.83,2.97,11.28,8.06s-3.85,9.98-9.1,10.95c-4.27.79-9-.89-11.49-4.3s-2.44-8.4.31-11.62,8.06-4.22,8.99-3.09Z"/>
    <path class="cls-6" d="m733.35,774.44c4.58-2.5,10.62-1.59,14.35,2.18,3.74,3.76,4.9,10.1,2.77,15.08-2.13,4.97-7.4,8.22-12.53,7.73s-9.76-4.7-11.01-10c-.6-2.56-.45-5.36.64-7.74,1.72-3.75,5.43-5.99,5.77-7.24Z"/>
    <path class="cls-5" d="m744.36,793.82c5.04-.24,10.33,1.53,13.47,5.24,3.14,3.7,3.69,9.38.7,13.19-1.87,2.39-4.92,3.86-8.06,4.21-4.37.49-8.97-1.21-11.71-4.43s-3.47-7.88-1.7-11.66,5.99-6.49,7.3-6.55Z"/>
    <path class="cls-6" d="m728.23,810.72c2.42-.94,5.29-.39,7.45,1.01s3.69,3.56,4.75,5.84c2.07,4.48,2.21,10.37-1.59,13.65-3.43,2.97-8.77,2.73-13.16,1.34-4.4-1.39-8.82-4.22-9.83-8.54-1.01-4.33,1.83-8.8,5.69-11.26s8.56-3.33,6.7-2.04Z"/>
    <path class="cls-6" d="m759.63,836.61c5.49-.91,11.47,1.79,13.93,6.28,2.46,4.49,1.2,10.39-2.95,13.74-3.17,2.56-7.93,3.56-11.92,2.21-2.88-.97-5.21-3.07-6.5-5.58-1.84-3.57-1.53-7.96.8-11.29s6.59-5.5,6.64-5.36Z"/>
    <path class="cls-6" d="m713.26,790.1c5.49-.91,11.47,1.79,13.93,6.28,2.46,4.49,1.2,10.39-2.95,13.74-3.17,2.56-7.93,3.56-11.92,2.21-2.88-.97-5.21-3.07-6.5-5.58-1.84-3.57-1.53-7.96.8-11.29s6.59-5.5,6.64-5.36Z"/>
    <path class="cls-3" d="m758.32,810.02c5.6-2.4,13.01.63,15.06,6.16,2.05,5.53-1.74,12.35-7.68,13.82-5.94,1.47-12.72-2.75-13.7-8.54-.98-5.79,4.06-11.85,6.32-11.45Z"/>
    <path class="cls-5" d="m743.72,822.67c5.6-2.4,13.01.63,15.06,6.16,2.05,5.53-1.74,12.35-7.68,13.82s-12.72-2.75-13.7-8.54c-.98-5.79,4.06-11.85,6.32-11.45Z"/>
    <path class="cls-43" d="m751.06,869.63c3.52-2.94,1.59-8.89-2.29-11.37-3.88-2.48-8.81-2.69-13.4-3.48s-9.59-2.7-11.32-6.85c-2.02-4.84,1.25-10.86-1.52-15.35-2.3-3.73-7.88-4.75-10.02-8.58-4.09-7.33,7.94-16.51,3.49-23.64-2.02-3.24-7.21-5.8-5.59-9.24-2.9-.87-5.93,1.71-6.49,4.57s.65,5.74,1.94,8.36,2.75,5.32,2.74,8.23c-.02,6.11-6.44,11.87-3.94,17.49,2.31,5.2,10.66,5.8,13.09,10.95,2.15,4.53-1.4,10.49,1.56,14.58,4.1,5.68,14.3.59,20.4,4.29,2.14,1.3,3.44,3.52,4.93,5.49s3.51,3.88,6.04,4.02,5.11-2.59.37.53Z"/>
    <path class="cls-8" d="m759.64,779.5c1.34-3.81,6.77-5.26,10.52-3.45s5.8,5.93,6.13,9.94-.79,7.98-1.89,11.86c5.08-1.65,11.18.23,14.31,4.41,3.12,4.18,3.01,10.3-.27,14.37-1.66,2.06-4.17,3.98-3.97,6.58.26,3.48,4.83,4.67,7.9,6.55,4.19,2.57,6.22,7.96,4.71,12.49-1.51,4.53-6.44,7.8-11.41,7.56,2.03,3.37,3.93,6.95,4.3,10.83.36,3.88-1.12,8.14-4.59,10.18-3.47,2.04-8.88.85-10.23-2.82-1.36-3.69,1.54-7.42,3.8-10.68s3.74-8.23.5-10.62c-1.96-1.44-5.21-1.49-6.1-3.69-.74-1.83.86-3.79,2.61-4.82s3.84-1.71,5.05-3.3c2.82-3.7-1.1-8.62-4.8-11.53s-7.9-7.43-5.54-11.42c.96-1.63,2.94-2.81,3.08-4.67.24-3.38-4.89-3.93-7.98-5.59-3.83-2.06-4.85-6.8-5.47-10.95-.69-4.61-1.34-9.2-.64-11.21Z"/>
    <path class="cls-20" d="m1160.84,237.44c1.66-7.2,3.33-14.41,4.99-21.61-12.16,4.74-15.61,14.35-12.83,22.36,1.3.42,7.15-.59,7.93-1.7-1.11,1.64-3.81,1.43-5.32.13-1.51-1.3-2.19-3.26-2.93-5.09-3.41-8.35-9.7-15.54-17.61-20.12,2.95,7.25,5.95,14.57,10.58,20.92,1.25,1.72.67,4.9,2.56,5.92,1.89,1.02,6.34-.24,8.16-1.37-5.29,1.99-7.86-4.07-12.95-6.51-5.09-2.43-14.32-1.31-19.47,1,7.38,1.81,14.2,5.74,19.41,11.16,2.34-1.86.86-2.73,3.21-4.59-2.2,3.75-1.47,1.24-5.89,1.2s-3.87-2.31-8.28-2.53-15.92,4.88-18.56,8.35c9.29-1.45,18.85-1.21,28.05.71,1.33-4.09,5.12-7.3,18.96-8.22Z"/>
    <path class="cls-24" d="m1168.25,230.85c3.93-5.13,12.35-5.95,17.2-1.69,4.85,4.26,5.11,12.72.53,17.27,7.32-2.25,16.01,2.93,17.53,10.43,1.52,7.5-4.48,15.64-12.1,16.42,7.87,1.69,15.2,7.96,15.89,15.98s-7.57,16.14-15.2,13.58c6.66,3.67,7.32,14.66,1.15,19.1s-16.38.32-17.75-7.15c-1.64,5.33-8.08,8.63-13.36,6.84s-8.4-8.32-6.46-13.55c-4.48,4.56-12.34,5.27-17.57,1.58s-7.19-11.33-4.4-17.08c-5.81-1.02-10.83-5.66-12.29-11.37-1.46-5.72.7-12.2,5.31-15.88-4.59-3.4-6.27-10.19-3.79-15.34,2.48-5.14,8.83-8.07,14.35-6.6-2.29-1.97-1.87-5.88.13-8.14s5.04-3.27,7.97-4.02c8.79-2.24,17.94-3.04,22.86-.38Z"/>
    <path class="cls-2" d="m1140.66,269.52c2.72,4.22,4.59,9.82,2.05,14.15-2.48,4.23-8.97,5.27-12.76,2.17-3.8-3.1-4.17-9.47-.91-13.12s9.46-4.07,11.62-3.2Z"/>
    <path class="cls-2" d="m1151.17,285.95c4.6,1.47,7.18,6.95,6.2,11.68-.99,4.73-4.91,8.49-9.42,10.21-2.35.9-5.14,1.28-7.3-.02-1.49-.9-2.45-2.47-3.03-4.11-1.73-4.88-.22-10.74,3.67-14.16,3.88-3.42,9.89-4.2,9.89-3.61Z"/>
    <path class="cls-2" d="m1168.24,297.77c3.95.35,6.54,4.67,6.54,8.64,0,3.77-1.89,7.63-5.21,9.42-3.31,1.79-7.96,1.05-10.14-2.02-2.3-3.24-1.37-7.86.82-11.18,2.62-3.96,7.67-6.88,7.99-4.87Z"/>
    <path class="cls-2" d="m1184.77,301.51c3.28,2.03,6.69,4.2,8.56,7.57s1.54,8.3-1.75,10.32c-2.95,1.81-6.86.59-9.7-1.39-1.51-1.06-2.93-2.39-3.56-4.12-.98-2.7.19-5.8,2.17-7.88,1.98-2.08,4.65-3.34,4.27-4.5Z"/>
    <path class="cls-2" d="m1188.53,273.93c3.28,1.3,6.53,2.8,9.27,5.02s4.95,5.26,5.58,8.73-.54,7.36-3.38,9.45c-2.17,1.6-5,2-7.7,2-3.01,0-6.15-.52-8.54-2.34-2.75-2.1-4.06-5.58-4.78-8.96-.53-2.49-.8-5.21.33-7.5,1.13-2.3,3.51-3.77,5.99-4.42s5.08-.56,3.24-1.98Z"/>
    <path class="cls-2" d="m1184.78,247.81c4.33-.57,8.95,1.14,11.7,4.54,2.75,3.4,3.42,8.41,1.46,12.32-1.96,3.91-6.53,6.4-10.84,5.71-3.18-.51-5.95-2.55-8.04-5-1.73-2.02-3.14-4.57-2.83-7.22.34-2.99,2.86-5.37,5.67-6.45s5.9-1.11,2.89-3.91Z"/>
    <path class="cls-2" d="m1174.8,231.84c4.4-1.13,9.21,2.64,9.59,7.16s-3.28,8.88-7.73,9.74c-3.63.7-7.65-.79-9.76-3.82s-2.07-7.47.27-10.33,6.85-3.75,7.64-2.74Z"/>
    <path class="cls-2" d="m1149.66,231.79c3.9-2.22,9.03-1.41,12.2,1.94,3.18,3.35,4.17,8.98,2.36,13.4-1.81,4.42-6.29,7.31-10.65,6.87s-8.3-4.18-9.36-8.89c-.51-2.28-.38-4.77.55-6.88,1.46-3.34,4.62-5.32,4.9-6.44Z"/>
    <path class="cls-2" d="m1159.02,249.01c4.29-.22,8.78,1.36,11.45,4.66s3.14,8.34.59,11.73c-1.59,2.12-4.18,3.43-6.85,3.74-3.71.43-7.63-1.08-9.96-3.94-2.33-2.86-2.95-7.01-1.45-10.36,1.5-3.36,5.09-5.77,6.21-5.82Z"/>
    <path class="cls-2" d="m1145.31,264.04c2.06-.83,4.5-.35,6.33.9s3.14,3.16,4.04,5.19c1.76,3.98,1.88,9.21-1.35,12.13-2.92,2.64-7.45,2.42-11.19,1.19-3.74-1.24-7.5-3.75-8.36-7.59-.86-3.85,1.56-7.83,4.84-10.01,3.28-2.18,7.27-2.96,5.69-1.81Z"/>
    <path class="cls-2" d="m1171.99,287.05c4.66-.81,9.75,1.59,11.84,5.58,2.1,3.99,1.02,9.23-2.5,12.21-2.7,2.28-6.74,3.16-10.13,1.96-2.45-.86-4.43-2.73-5.52-4.96-1.56-3.17-1.3-7.07.68-10.04s5.6-4.89,5.64-4.76Z"/>
    <path class="cls-2" d="m1132.58,245.71c4.66-.81,9.75,1.59,11.84,5.58,2.1,3.99,1.02,9.23-2.5,12.21-2.7,2.28-6.74,3.16-10.13,1.96-2.45-.86-4.43-2.73-5.52-4.96-1.56-3.17-1.3-7.07.68-10.04s5.6-4.89,5.64-4.76Z"/>
    <path class="cls-2" d="m1170.88,263.41c4.76-2.13,11.06.56,12.8,5.48,1.74,4.92-1.48,10.98-6.53,12.29-5.05,1.31-10.81-2.44-11.65-7.59-.84-5.15,3.45-10.53,5.37-10.18Z"/>
    <path class="cls-2" d="m1158.47,274.66c4.76-2.13,11.06.56,12.8,5.48,1.74,4.92-1.48,10.98-6.53,12.29s-10.81-2.44-11.65-7.59,3.45-10.53,5.37-10.18Z"/>
    <path class="cls-42" d="m1164.71,316.41c2.99-2.61,1.36-7.9-1.94-10.11s-7.49-2.39-11.39-3.09c-3.91-.7-8.15-2.4-9.62-6.09-1.72-4.3,1.06-9.65-1.3-13.65-1.96-3.32-6.7-4.23-8.51-7.62-3.48-6.52,6.75-14.68,2.97-21.02-1.72-2.88-6.13-5.15-4.75-8.21-2.46-.78-5.04,1.52-5.51,4.06-.47,2.54.55,5.1,1.65,7.43s2.34,4.73,2.33,7.31c-.01,5.43-5.47,10.55-3.35,15.55,1.96,4.63,9.06,5.16,11.13,9.73,1.82,4.03-1.19,9.32,1.32,12.96,3.49,5.05,12.16.52,17.34,3.81,1.82,1.16,2.92,3.13,4.19,4.88,1.26,1.75,2.98,3.45,5.14,3.57s4.34-2.31.31.47Z"/>
    <path class="cls-8" d="m1172,236.29c1.14-3.39,5.75-4.67,8.95-3.07s4.93,5.27,5.21,8.83c.28,3.56-.67,7.1-1.61,10.55,4.32-1.46,9.51.21,12.16,3.92s2.56,9.16-.23,12.77c-1.41,1.83-3.54,3.54-3.38,5.85.22,3.09,4.1,4.15,6.71,5.82,3.56,2.28,5.29,7.07,4,11.1s-5.47,6.93-9.7,6.72c1.73,3,3.34,6.18,3.65,9.63.31,3.45-.96,7.23-3.9,9.05s-7.55.76-8.7-2.51c-1.16-3.28,1.31-6.6,3.23-9.5s3.18-7.32.43-9.44c-1.66-1.28-4.43-1.32-5.19-3.28-.63-1.63.73-3.37,2.22-4.29,1.49-.92,3.26-1.52,4.29-2.93,2.4-3.29-.93-7.66-4.08-10.25s-6.72-6.61-4.71-10.15c.82-1.44,2.5-2.49,2.62-4.15.21-3-4.16-3.49-6.79-4.97-3.25-1.83-4.12-6.04-4.65-9.74-.59-4.1-1.14-8.18-.54-9.96Z"/>
    <path class="cls-20" d="m1126.95,670.93c1.66-7.2,3.33-14.41,4.99-21.61-12.16,4.74-15.61,14.35-12.83,22.36,1.3.42,7.15-.59,7.93-1.7-1.11,1.64-3.81,1.43-5.32.13s-2.19-3.26-2.93-5.09c-3.41-8.35-9.7-15.54-17.61-20.12,2.95,7.25,5.95,14.57,10.58,20.92,1.25,1.72.67,4.9,2.56,5.92,1.89,1.02,6.34-.24,8.16-1.37-5.29,1.99-7.86-4.07-12.95-6.51-5.09-2.43-14.32-1.31-19.47,1,7.38,1.81,14.2,5.74,19.41,11.16,2.34-1.86.86-2.73,3.21-4.59-2.2,3.75-1.47,1.24-5.89,1.2s-3.87-2.31-8.28-2.53-15.92,4.88-18.56,8.35c9.29-1.45,18.85-1.21,28.05.71,1.33-4.09,5.12-7.3,18.96-8.22Z"/>
    <path class="cls-24" d="m1134.36,664.34c3.93-5.13,12.35-5.95,17.2-1.69s5.11,12.72.53,17.27c7.32-2.25,16.01,2.93,17.53,10.43,1.52,7.5-4.48,15.64-12.1,16.42,7.87,1.69,15.2,7.96,15.89,15.98s-7.57,16.14-15.2,13.58c6.66,3.67,7.32,14.66,1.15,19.1s-16.38.32-17.75-7.15c-1.64,5.33-8.08,8.63-13.36,6.84s-8.4-8.32-6.46-13.55c-4.48,4.56-12.34,5.27-17.57,1.58s-7.19-11.33-4.4-17.08c-5.81-1.02-10.83-5.66-12.29-11.37-1.46-5.72.7-12.2,5.31-15.88-4.59-3.4-6.27-10.19-3.79-15.34s8.83-8.07,14.35-6.6c-2.29-1.97-1.87-5.88.13-8.14s5.04-3.27,7.97-4.02c8.79-2.24,17.94-3.04,22.86-.38Z"/>
    <path class="cls-2" d="m1106.77,703.01c2.72,4.22,4.59,9.82,2.05,14.15-2.48,4.23-8.97,5.27-12.76,2.17s-4.17-9.47-.91-13.12,9.46-4.07,11.62-3.2Z"/>
    <path class="cls-2" d="m1117.28,719.44c4.6,1.47,7.18,6.95,6.2,11.68-.99,4.73-4.91,8.49-9.42,10.21-2.35.9-5.14,1.28-7.3-.02-1.49-.9-2.45-2.47-3.03-4.11-1.73-4.88-.22-10.74,3.67-14.16,3.88-3.42,9.89-4.2,9.89-3.61Z"/>
    <path class="cls-2" d="m1134.35,731.26c3.95.35,6.54,4.67,6.54,8.64,0,3.77-1.89,7.63-5.21,9.42s-7.96,1.05-10.14-2.02c-2.3-3.24-1.37-7.86.82-11.18,2.62-3.96,7.67-6.88,7.99-4.87Z"/>
    <path class="cls-2" d="m1150.88,735c3.28,2.03,6.69,4.2,8.56,7.57s1.54,8.3-1.75,10.32c-2.95,1.81-6.86.59-9.7-1.39-1.51-1.06-2.93-2.39-3.56-4.12-.98-2.7.19-5.8,2.17-7.88s4.65-3.34,4.27-4.5Z"/>
    <path class="cls-2" d="m1154.64,707.42c3.28,1.3,6.53,2.8,9.27,5.02s4.95,5.26,5.58,8.73-.54,7.36-3.38,9.45c-2.17,1.6-5,2-7.7,2-3.01,0-6.15-.52-8.54-2.34-2.75-2.1-4.06-5.58-4.78-8.96-.53-2.49-.8-5.21.33-7.5,1.13-2.3,3.51-3.77,5.99-4.42s5.08-.56,3.24-1.98Z"/>
    <path class="cls-2" d="m1150.89,681.3c4.33-.57,8.95,1.14,11.7,4.54,2.75,3.4,3.42,8.41,1.46,12.32-1.96,3.91-6.53,6.4-10.84,5.71-3.18-.51-5.95-2.55-8.04-5-1.73-2.02-3.14-4.57-2.83-7.22.34-2.99,2.86-5.37,5.67-6.45s5.9-1.11,2.89-3.91Z"/>
    <path class="cls-2" d="m1140.91,665.34c4.4-1.13,9.21,2.64,9.59,7.16s-3.28,8.88-7.73,9.74c-3.63.7-7.65-.79-9.76-3.82s-2.07-7.47.27-10.33,6.85-3.75,7.64-2.74Z"/>
    <path class="cls-2" d="m1115.76,665.28c3.9-2.22,9.03-1.41,12.2,1.94,3.18,3.35,4.17,8.98,2.36,13.4-1.81,4.42-6.29,7.31-10.65,6.87s-8.3-4.18-9.36-8.89c-.51-2.28-.38-4.77.55-6.88,1.46-3.34,4.62-5.32,4.9-6.44Z"/>
    <path class="cls-2" d="m1125.12,682.5c4.29-.22,8.78,1.36,11.45,4.66s3.14,8.34.59,11.73c-1.59,2.12-4.18,3.43-6.85,3.74-3.71.43-7.63-1.08-9.96-3.94s-2.95-7.01-1.45-10.36c1.5-3.36,5.09-5.77,6.21-5.82Z"/>
    <path class="cls-2" d="m1111.41,697.53c2.06-.83,4.5-.35,6.33.9s3.14,3.16,4.04,5.19c1.76,3.98,1.88,9.21-1.35,12.13-2.92,2.64-7.45,2.42-11.19,1.19-3.74-1.24-7.5-3.75-8.36-7.59-.86-3.85,1.56-7.83,4.84-10.01s7.27-2.96,5.69-1.81Z"/>
    <path class="cls-2" d="m1138.1,720.54c4.66-.81,9.75,1.59,11.84,5.58,2.1,3.99,1.02,9.23-2.5,12.21-2.7,2.28-6.74,3.16-10.13,1.96-2.45-.86-4.43-2.73-5.52-4.96-1.56-3.17-1.3-7.07.68-10.04s5.6-4.89,5.64-4.76Z"/>
    <path class="cls-2" d="m1098.68,679.2c4.66-.81,9.75,1.59,11.84,5.58,2.1,3.99,1.02,9.23-2.5,12.21-2.7,2.28-6.74,3.16-10.13,1.96-2.45-.86-4.43-2.73-5.52-4.96-1.56-3.17-1.3-7.07.68-10.04s5.6-4.89,5.64-4.76Z"/>
    <path class="cls-2" d="m1136.99,696.91c4.76-2.13,11.06.56,12.8,5.48s-1.48,10.98-6.53,12.29-10.81-2.44-11.65-7.59,3.45-10.53,5.37-10.18Z"/>
    <path class="cls-2" d="m1124.57,708.15c4.76-2.13,11.06.56,12.8,5.48s-1.48,10.98-6.53,12.29c-5.05,1.31-10.81-2.44-11.65-7.59-.84-5.15,3.45-10.53,5.37-10.18Z"/>
    <path class="cls-42" d="m1130.82,749.9c2.99-2.61,1.36-7.9-1.94-10.11s-7.49-2.39-11.39-3.09-8.15-2.4-9.62-6.09c-1.72-4.3,1.06-9.65-1.3-13.65-1.96-3.32-6.7-4.23-8.51-7.62-3.48-6.52,6.75-14.68,2.97-21.02-1.72-2.88-6.13-5.15-4.75-8.21-2.46-.78-5.04,1.52-5.51,4.06-.47,2.54.55,5.1,1.65,7.43,1.1,2.33,2.34,4.73,2.33,7.31-.01,5.43-5.47,10.55-3.35,15.55,1.96,4.63,9.06,5.16,11.13,9.73,1.82,4.03-1.19,9.32,1.32,12.96,3.49,5.05,12.16.52,17.34,3.81,1.82,1.16,2.92,3.13,4.19,4.88,1.26,1.75,2.98,3.45,5.14,3.57s4.34-2.31.31.47Z"/>
    <path class="cls-8" d="m1138.11,669.78c1.14-3.39,5.75-4.67,8.95-3.07s4.93,5.27,5.21,8.83c.28,3.56-.67,7.1-1.61,10.55,4.32-1.46,9.51.21,12.16,3.92s2.56,9.16-.23,12.77c-1.41,1.83-3.54,3.54-3.38,5.85.22,3.09,4.1,4.15,6.71,5.82,3.56,2.28,5.29,7.07,4,11.1s-5.47,6.93-9.7,6.72c1.73,3,3.34,6.18,3.65,9.63.31,3.45-.96,7.23-3.9,9.05-2.95,1.81-7.55.76-8.7-2.51-1.16-3.28,1.31-6.6,3.23-9.5s3.18-7.32.43-9.44c-1.66-1.28-4.43-1.32-5.19-3.28-.63-1.63.73-3.37,2.22-4.29s3.26-1.52,4.29-2.93c2.4-3.29-.93-7.66-4.08-10.25-3.15-2.59-6.72-6.61-4.71-10.15.82-1.44,2.5-2.49,2.62-4.15.21-3-4.16-3.49-6.79-4.97-3.25-1.83-4.12-6.04-4.65-9.74-.59-4.1-1.14-8.18-.54-9.96Z"/>
    <path class="cls-20" d="m706.01,578.43c-1.66-7.2-3.33-14.41-4.99-21.61,12.16,4.74,15.61,14.35,12.83,22.36-1.3.42-7.15-.59-7.93-1.7,1.11,1.64,3.81,1.43,5.32.13s2.19-3.26,2.93-5.09c3.41-8.35,9.7-15.54,17.61-20.12-2.95,7.25-5.95,14.57-10.58,20.92-1.25,1.72-.67,4.9-2.56,5.92-1.89,1.02-6.34-.24-8.16-1.37,5.29,1.99,7.86-4.07,12.95-6.51s14.32-1.31,19.47,1c-7.38,1.81-14.2,5.74-19.41,11.16-2.34-1.86-.86-2.73-3.21-4.59,2.2,3.75,1.47,1.24,5.89,1.2s3.87-2.31,8.28-2.53,15.92,4.88,18.56,8.35c-9.29-1.45-18.85-1.21-28.05.71-1.33-4.09-5.12-7.3-18.96-8.22Z"/>
    <path class="cls-24" d="m698.6,571.84c-3.93-5.13-12.35-5.95-17.2-1.69s-5.11,12.72-.53,17.27c-7.32-2.25-16.01,2.93-17.53,10.43s4.48,15.64,12.1,16.42c-7.87,1.69-15.2,7.96-15.89,15.98s7.57,16.14,15.2,13.58c-6.66,3.67-7.32,14.66-1.15,19.1s16.38.32,17.75-7.15c1.64,5.33,8.08,8.63,13.36,6.84s8.4-8.32,6.46-13.55c4.48,4.56,12.34,5.27,17.57,1.58s7.19-11.33,4.4-17.08c5.81-1.02,10.83-5.66,12.29-11.37s-.7-12.2-5.31-15.88c4.59-3.4,6.27-10.19,3.79-15.34s-8.83-8.07-14.35-6.6c2.29-1.97,1.87-5.88-.13-8.14s-5.04-3.27-7.97-4.02c-8.79-2.24-17.94-3.04-22.86-.38Z"/>
    <path class="cls-2" d="m726.19,610.51c-2.72,4.22-4.59,9.82-2.05,14.15,2.48,4.23,8.97,5.27,12.76,2.17s4.17-9.47.91-13.12-9.46-4.07-11.62-3.2Z"/>
    <path class="cls-2" d="m715.68,626.94c-4.6,1.47-7.18,6.95-6.2,11.68s4.91,8.49,9.42,10.21c2.35.9,5.14,1.28,7.3-.02,1.49-.9,2.45-2.47,3.03-4.11,1.73-4.88.22-10.74-3.67-14.16-3.88-3.42-9.89-4.2-9.89-3.61Z"/>
    <path class="cls-2" d="m698.61,638.76c-3.95.35-6.54,4.67-6.54,8.64,0,3.77,1.89,7.63,5.21,9.42s7.96,1.05,10.14-2.02c2.3-3.24,1.37-7.86-.82-11.18-2.62-3.96-7.67-6.88-7.99-4.87Z"/>
    <path class="cls-2" d="m682.08,642.49c-3.28,2.03-6.69,4.2-8.56,7.57s-1.54,8.3,1.75,10.32c2.95,1.81,6.86.59,9.7-1.39,1.51-1.06,2.93-2.39,3.56-4.12.98-2.7-.19-5.8-2.17-7.88s-4.65-3.34-4.27-4.5Z"/>
    <path class="cls-2" d="m678.32,614.91c-3.28,1.3-6.53,2.8-9.27,5.02s-4.95,5.26-5.58,8.73.54,7.36,3.38,9.45c2.17,1.6,5,2,7.7,2,3.01,0,6.15-.52,8.54-2.34,2.75-2.1,4.06-5.58,4.78-8.96.53-2.49.8-5.21-.33-7.5-1.13-2.3-3.51-3.77-5.99-4.42s-5.08-.56-3.24-1.98Z"/>
    <path class="cls-2" d="m682.07,588.8c-4.33-.57-8.95,1.14-11.7,4.54s-3.42,8.41-1.46,12.32,6.53,6.4,10.84,5.71c3.18-.51,5.95-2.55,8.04-5,1.73-2.02,3.14-4.57,2.83-7.22-.34-2.99-2.86-5.37-5.67-6.45s-5.9-1.11-2.89-3.91Z"/>
    <path class="cls-2" d="m692.05,572.83c-4.4-1.13-9.21,2.64-9.59,7.16s3.28,8.88,7.73,9.74c3.63.7,7.65-.79,9.76-3.82s2.07-7.47-.27-10.33-6.85-3.75-7.64-2.74Z"/>
    <path class="cls-2" d="m717.19,572.78c-3.9-2.22-9.03-1.41-12.2,1.94s-4.17,8.98-2.36,13.4,6.29,7.31,10.65,6.87,8.3-4.18,9.36-8.89c.51-2.28.38-4.77-.55-6.88-1.46-3.34-4.62-5.32-4.9-6.44Z"/>
    <path class="cls-2" d="m707.83,590c-4.29-.22-8.78,1.36-11.45,4.66-2.67,3.29-3.14,8.34-.59,11.73,1.59,2.12,4.18,3.43,6.85,3.74,3.71.43,7.63-1.08,9.96-3.94,2.33-2.86,2.95-7.01,1.45-10.36s-5.09-5.77-6.21-5.82Z"/>
    <path class="cls-2" d="m721.54,605.03c-2.06-.83-4.5-.35-6.33.9s-3.14,3.16-4.04,5.19c-1.76,3.98-1.88,9.21,1.35,12.13,2.92,2.64,7.45,2.42,11.19,1.19,3.74-1.24,7.5-3.75,8.36-7.59.86-3.85-1.56-7.83-4.84-10.01s-7.27-2.96-5.69-1.81Z"/>
    <path class="cls-2" d="m694.86,628.04c-4.66-.81-9.75,1.59-11.84,5.58-2.1,3.99-1.02,9.23,2.5,12.21,2.7,2.28,6.74,3.16,10.13,1.96,2.45-.86,4.43-2.73,5.52-4.96,1.56-3.17,1.3-7.07-.68-10.04s-5.6-4.89-5.64-4.76Z"/>
    <path class="cls-2" d="m734.28,586.7c-4.66-.81-9.75,1.59-11.84,5.58-2.1,3.99-1.02,9.23,2.5,12.21,2.7,2.28,6.74,3.16,10.13,1.96,2.45-.86,4.43-2.73,5.52-4.96,1.56-3.17,1.3-7.07-.68-10.04s-5.6-4.89-5.64-4.76Z"/>
    <path class="cls-2" d="m695.97,604.4c-4.76-2.13-11.06.56-12.8,5.48s1.48,10.98,6.53,12.29,10.81-2.44,11.65-7.59-3.45-10.53-5.37-10.18Z"/>
    <path class="cls-2" d="m708.38,615.65c-4.76-2.13-11.06.56-12.8,5.48s1.48,10.98,6.53,12.29,10.81-2.44,11.65-7.59-3.45-10.53-5.37-10.18Z"/>
    <path class="cls-42" d="m702.14,657.4c-2.99-2.61-1.36-7.9,1.94-10.11s7.49-2.39,11.39-3.09,8.15-2.4,9.62-6.09c1.72-4.3-1.06-9.65,1.3-13.65,1.96-3.32,6.7-4.23,8.51-7.62,3.48-6.52-6.75-14.68-2.97-21.02,1.72-2.88,6.13-5.15,4.75-8.21,2.46-.78,5.04,1.52,5.51,4.06s-.55,5.1-1.65,7.43-2.34,4.73-2.33,7.31c.01,5.43,5.47,10.55,3.35,15.55-1.96,4.63-9.06,5.16-11.13,9.73-1.82,4.03,1.19,9.32-1.32,12.96-3.49,5.05-12.16.52-17.34,3.81-1.82,1.16-2.92,3.13-4.19,4.88s-2.98,3.45-5.14,3.57-4.34-2.31-.31.47Z"/>
    <path class="cls-8" d="m694.85,577.27c-1.14-3.39-5.75-4.67-8.95-3.07s-4.93,5.27-5.21,8.83.67,7.1,1.61,10.55c-4.32-1.46-9.51.21-12.16,3.92s-2.56,9.16.23,12.77c1.41,1.83,3.54,3.54,3.38,5.85-.22,3.09-4.1,4.15-6.71,5.82-3.56,2.28-5.29,7.07-4,11.1s5.47,6.93,9.7,6.72c-1.73,3-3.34,6.18-3.65,9.63s.96,7.23,3.9,9.05,7.55.76,8.7-2.51c1.16-3.28-1.31-6.6-3.23-9.5s-3.18-7.32-.43-9.44c1.66-1.28,4.43-1.32,5.19-3.28.63-1.63-.73-3.37-2.22-4.29s-3.26-1.52-4.29-2.93c-2.4-3.29.93-7.66,4.08-10.25s6.72-6.61,4.71-10.15c-.82-1.44-2.5-2.49-2.62-4.15-.21-3,4.16-3.49,6.79-4.97,3.25-1.83,4.12-6.04,4.65-9.74.59-4.1,1.14-8.18.54-9.96Z"/>
  </g>
</svg>