<svg xmlns="http://www.w3.org/2000/svg" xmlns:xlink="http://www.w3.org/1999/xlink" width="302.779" height="186.127" viewBox="0 0 302.779 186.127">
  <defs>
    <filter id="Path_18" x="0" y="0" width="302.779" height="186.127" filterUnits="userSpaceOnUse">
      <feOffset dx="2" dy="3" input="SourceAlpha"/>
      <feGaussianBlur stdDeviation="3" result="blur"/>
      <feFlood flood-opacity="0.161"/>
      <feComposite operator="in" in2="blur"/>
      <feComposite in="SourceGraphic"/>
    </filter>
  </defs>
  <g id="Component_14_12" data-name="Component 14 – 12" transform="translate(7 6)">
    <g transform="matrix(1, 0, 0, 1, -7, -6)" filter="url(#Path_18)">
      <path id="Path_18-2" data-name="Path 18" d="M133.489,10.166c42.115,31.871,133.425,19.059,133.4,42.728s-74.525,76.577-133.485,42.987S-.019,76.823,0,53.153,91.374-21.705,133.489,10.166Z" transform="translate(6.99 70.56) rotate(-14)" fill="#f07041"/>
    </g>
    <path id="Path_24" data-name="Path 24" d="M1.764-1.988A9.128,9.128,0,0,0,7.672.28c3.276,0,6.048-2.128,6.048-5.04,0-3.248-2.436-4.676-6.216-6.216-2.352-.98-3.78-2.072-3.78-3.948,0-1.176.9-3.08,3.864-3.08a7.839,7.839,0,0,1,3.668,1.288.633.633,0,0,0,.98-.252c.112-.168.224-.364.336-.532a.624.624,0,0,0-.168-.952A9.158,9.158,0,0,0,7.616-19.88c-4.452,0-5.964,3.08-5.964,4.984,0,3.192,1.848,4.452,4.928,5.8,3.22,1.344,4.9,2.492,4.9,4.424C11.48-3.024,10-1.6,7.728-1.6A7.736,7.736,0,0,1,3-3.724c-.392-.336-.7-.112-.98.252-.14.168-.28.364-.42.532A.615.615,0,0,0,1.764-1.988ZM17.78-.532A.532.532,0,0,0,18.312,0H29.344a.532.532,0,0,0,.532-.532v-.812a.532.532,0,0,0-.532-.532H19.936v-7.14h8.036a.532.532,0,0,0,.532-.532v-.812a.551.551,0,0,0-.532-.532H19.936v-6.832h9.408a.532.532,0,0,0,.532-.532v-.812a.532.532,0,0,0-.532-.532H18.312a.532.532,0,0,0-.532.532Zm16.576,0A.551.551,0,0,0,34.888,0h.98A.532.532,0,0,0,36.4-.532V-15.764h.028L49.28.28h.5a.526.526,0,0,0,.532-.5V-19.068a.551.551,0,0,0-.532-.532H48.8a.532.532,0,0,0-.532.532V-4.144h-.056L35.588-19.88h-.7a.526.526,0,0,0-.532.5Zm21.672,0a.526.526,0,0,0,.5.532H62.8a9.841,9.841,0,0,0,9.828-9.828A9.829,9.829,0,0,0,62.8-19.6H56.532a.526.526,0,0,0-.5.532Zm2.128-1.4V-17.7h4.2A7.618,7.618,0,0,1,70.28-9.828a7.625,7.625,0,0,1-7.924,7.9Zm23.912-.056A9.128,9.128,0,0,0,87.976.28c3.276,0,6.048-2.128,6.048-5.04,0-3.248-2.436-4.676-6.216-6.216-2.352-.98-3.78-2.072-3.78-3.948,0-1.176.9-3.08,3.864-3.08a7.839,7.839,0,0,1,3.668,1.288.633.633,0,0,0,.98-.252c.112-.168.224-.364.336-.532a.624.624,0,0,0-.168-.952A9.158,9.158,0,0,0,87.92-19.88c-4.452,0-5.964,3.08-5.964,4.984,0,3.192,1.848,4.452,4.928,5.8,3.22,1.344,4.9,2.492,4.9,4.424,0,1.652-1.484,3.08-3.752,3.08A7.736,7.736,0,0,1,83.3-3.724c-.392-.336-.7-.112-.98.252-.14.168-.28.364-.42.532A.615.615,0,0,0,82.068-1.988ZM103.88-.028a.569.569,0,0,0,.476.308h.28a.534.534,0,0,0,.476-.308l8.512-18.844a.494.494,0,0,0-.476-.728h-1.12a.549.549,0,0,0-.476.308L104.58-3.612h-.112L97.5-19.292a.515.515,0,0,0-.476-.308H95.9a.494.494,0,0,0-.476.728ZM113.344,0h1.12a.515.515,0,0,0,.476-.308l2.044-4.62h9.94L129-.308a.515.515,0,0,0,.476.308h1.12a.494.494,0,0,0,.476-.728l-8.456-18.844a.5.5,0,0,0-.476-.308h-.28a.5.5,0,0,0-.476.308L112.868-.728A.494.494,0,0,0,113.344,0Zm4.424-6.664,4.088-9.184h.224c1.372,3.052,2.716,6.132,4.088,9.184ZM134.12-.532a.532.532,0,0,0,.532.532h1.092a.551.551,0,0,0,.532-.532v-7.14h5.348l3.724,7.42A.48.48,0,0,0,145.8,0h1.428a.53.53,0,0,0,.476-.812l-3.836-7.112a6.251,6.251,0,0,0,4.144-5.712,6.018,6.018,0,0,0-6.1-5.964h-7.252a.532.532,0,0,0-.532.532Zm2.212-8.988v-8.036h5.432a4.072,4.072,0,0,1,4.032,3.948,4.081,4.081,0,0,1-4.032,4.088Z" transform="translate(67.39 93.063)" fill="#fff"/>
  </g>
</svg>
