<?xml version="1.0" encoding="UTF-8"?>
<svg id="_ÎÓÈ_1" data-name="—ÎÓÈ_1" xmlns="http://www.w3.org/2000/svg" viewBox="0 0 4537 2346">
  <defs>
    <style>
      .cls-1 {
        fill: #404040;
        fill-rule: evenodd;
        stroke-width: 0px;
      }
    </style>
  </defs>
  <path class="cls-1" d="m3577.66,1043.2c113.88.58,227.8,3.05,341.62.66,36.9-.79,69.83,2.17,99.73,23.95,29.44,21.45,59.55,48.06,48.12,86.25-12.88,43.12-55.68,51.84-94.3,43.86-133.94-27.7-267.18,10.42-401.53-1.38-307.41-27-613.95,23.28-921.52,19.04-467.25-6.42-933.91,15.62-1400.56,35.94-37.74,1.65-75.83-5.97-113.81-8.14-13.9-.81-31.74-3.87-36.92,14.48-5.18,18.29,9.46,26.94,23.82,30.21,98.78,22.48,329.43,139.47,386.41,225.44,57.12,86.19-11.76,122.14-90.52,81.54-212.9-109.69-428.24-214.57-663.98-269.29-88.75-20.61-103.63-90.03-44.31-160.42,50.51-59.95,863.58-552.44,867.86-421.44,3.37,104.3-110.01,127.75-184.2,162.71-24.09,11.34-281.5,178.74-241.7,189.71,67.27,18.55,161.42.73,226.15.23,135.67-1.04,271,11.7,406.66,3.18,294.03-18.46,587.18-49.99,882.58-34.51,303.61,15.91,606.52-33.97,910.39-22.04Z"/>
</svg>